<svg class="animated" id="freepik_stories-documents" xmlns="http://www.w3.org/2000/svg"
xmlns:xlink="http://www.w3.org/1999/xlink" viewBox="0 0 500 500" version="1.1"
xmlns:svgjs="http://svgjs.com/svgjs">
  <style>
    svg#freepik_stories-documents:not(.animated) .animable {opacity: 0;}svg#freepik_stories-documents.animated
    #freepik--character-1--inject-1--inject-2 {animation: 1.5s Infinite linear
    floating;animation-delay: 0s;}svg#freepik_stories-documents.animated #freepik--character-2--inject-1--inject-2
    {animation: 1.5s Infinite linear floating;animation-delay: 0s;} @keyframes
    floating { 0% { opacity: 1; transform: translateY(0px); } 50% { transform:
    translateY(-10px); } 100% { opacity: 1; transform: translateY(0px); } }
  </style>
  <!--Documents-->
  <g id="freepik--background-simple--inject-1--inject-2" style="transform-origin: 263.265px 212.87px 0px;"
  class="animable">
    <path d="M378.07,87.43c-49.5-28.29-93.34-5-115.27,19.8S224.53,157.08,197,161.68s-69.3-7.07-100.42,14.85-31,80.14-6.36,113.15,88.39,48.79,161.94,59.4a193.9,193.9,0,0,0,79.11-4.39l33.41-12.13c16.32-7.45,30-15.84,41.58-22.65,17.62-10.4,23.83-35.75,27.2-54.32a223.69,223.69,0,0,0-1.25-84C424.83,136.73,408,104.52,378.07,87.43Z"
    style="fill: rgb(246, 236, 201); transform-origin: 254.632px 212.87px 0px;" id="elxngp7ndzrbg"
    class="animable">
    </path>
    <g id="elyo86nilbftd">
      <path d="M378.07,87.43c-49.5-28.29-93.34-5-115.27,19.8S224.53,157.08,197,161.68s-69.3-7.07-100.42,14.85-31,80.14-6.36,113.15,88.39,48.79,161.94,59.4a193.9,193.9,0,0,0,79.11-4.39l33.41-12.13c16.32-7.45,30-15.84,41.58-22.65,17.62-10.4,23.83-35.75,27.2-54.32a223.69,223.69,0,0,0-1.25-84C424.83,136.73,408,104.52,378.07,87.43Z"
      style="fill: rgb(221,212,181); opacity: 0.8; transform-origin: 254.632px 212.87px 0px;"
      class="animable" id="elak0nt1vv0ct">
      </path>
    </g>
  </g>
  <g id="freepik--Shadow--inject-1--inject-2" style="transform-origin: 265.98px 421.67px 0px;"
  class="animable">
    <ellipse cx="265.98" cy="421.67" rx="202.32" ry="7.52" style="fill: #DDD4B5; transform-origin: 265.98px 421.67px 0px;"
    id="elzenqaoa4sa" class="animable">
    </ellipse>
    <g id="elhrocp9mg296">
      <ellipse cx="265.98" cy="421.67" rx="202.32" ry="7.52" style="fill: rgb(221,212,181); opacity: 0.8; transform-origin: 265.98px 421.67px 0px;"
      class="animable" id="el1iaqvlwddw5">
      </ellipse>
    </g>
  </g>
  <g id="freepik--character-1--inject-1--inject-2" style="transform-origin: 258.796px 249.808px 0px;"
  class="animable">
    <path d="M130.75,81.12a9.22,9.22,0,0,0-9.18-1.83c-5.5,1.83-10.77,9.78-9.44,16.51.93,4.66,5.25,11.53,6.56,14.15S118.16,117,114,126.2s-5.77,17.83,6.29,25.43S146,147.17,153,138.52s-5.25-28.57-6.3-37S143.85,76.93,130.75,81.12Z"
    style="fill: rgb(38, 50, 56); transform-origin: 133.04px 116.406px 0px;"
    id="elpqsjagrgol" class="animable">
    </path>
    <path d="M159.1,139.1A28.88,28.88,0,0,1,136,147.44l-2.89,12.05L138.61,187l35.91-18.61-8.13-21Z"
    style="fill: #DDD4B5; stroke: rgb(38, 50, 56); stroke-linecap: round; stroke-linejoin: round; transform-origin: 153.815px 163.05px 0px;"
    id="elon4la2u489e" class="animable">
    </path>
    <g id="elv0r1plus8h">
      <path d="M159.1,139.1A28.88,28.88,0,0,1,136,147.44l-2.89,12.05L138.61,187l35.91-18.61-8.13-21Z"
      style="fill: rgb(38, 50, 56); opacity: 0.3; transform-origin: 153.815px 163.05px 0px;"
      class="animable" id="el5m3mxjpjn4">
      </path>
    </g>
    <path d="M159.1,139.1l0,0-5.5-36.44L137.3,106l-8.13,5.24s-9.7,7.61-9.7,8.39,16.41,28.24,16.41,28.24A30.42,30.42,0,0,0,159.1,139.1Z"
    style="fill: rgb(251,247,233); transform-origin: 139.285px 125.292px 0px;"
    id="elvoiza22yufc" class="animable">
    </path>
    <g style="clip-path: url(&quot;#freepik--clip-path--inject-1--inject-2&quot;); transform-origin: 150.145px 125.735px 0px;"
    id="elnqvuvkk25s" class="animable">
      <g id="elph95qmhjk5e">
        <path d="M166.39,147.44l-7.34-8.39-5.5-36.44L137.3,106l-3.84,2.48L134.68,125a9.61,9.61,0,0,0,3.24,1.16c1.16,0,2.09-2.55,2.09-2.55l1.39-2.32a5.1,5.1,0,0,0,5.34.47c3.24-1.4,1.39-6.5.92-8.35s4.41-.7,4.41-.7,3.94,8.58,4.41,11.36-2.09,10.44-1.86,12.07.23,4.63-.69,5.56-4.18,6-4.18,6,13.69,1.16,15.08,1.16a11.76,11.76,0,0,0,2-.39Z"
        style="fill: none; opacity: 0.5; mix-blend-mode: multiply; transform-origin: 150.145px 125.735px 0px;"
        class="animable" id="ely6uz9plaqc">
        </path>
      </g>
    </g>
    <path d="M159.1,139.1l0,0-5.5-36.44L137.3,106l-8.13,5.24s-9.7,7.61-9.7,8.39,16.41,28.24,16.41,28.24A30.42,30.42,0,0,0,159.1,139.1Z"
    style="fill: none; stroke: rgb(38, 50, 56); stroke-linecap: round; stroke-linejoin: round; transform-origin: 139.285px 125.292px 0px;"
    id="elnmt3ceb9l8" class="animable">
    </path>
    <g id="elrd8ctiwiu0d">
      <path d="M137.23,137.54s11.49-8.52,10.43-6-9,8.81-11.13,9S137.23,137.54,137.23,137.54Z"
      style="fill: #DDD4B5; opacity: 0.5; transform-origin: 141.733px 135.811px 0px;"
      class="animable" id="el2270xtrnxpk">
      </path>
    </g>
    <polyline points="137.58 121.36 138.03 121.83 140.83 124.79 141.55 136.16 144.98 135.62 142.27 124.97 146.61 133.99 150.22 130.38 142.46 123.34 142.27 117.75 138.3 115.76"
    style="fill: rgb(38, 50, 56); transform-origin: 143.9px 125.96px 0px;"
    id="elmtl4l6q8rv" class="animable">
    </polyline>
    <path d="M131.27,107.86s-3.41,1.57-3.41,4.71,3.69,10.61,6,12.18,6.27-5.62,6.27-5.62,6,2.88,7.6.26-3.67-11.27-7.07-13.63S131.27,107.86,131.27,107.86Z"
    style="fill: rgb(251,247,233); stroke: rgb(38, 50, 56); stroke-linecap: round; stroke-linejoin: round; transform-origin: 137.943px 115.023px 0px;"
    id="el8q0hdhh66q7" class="animable">
    </path>
    <path d="M128.39,104.71a62.24,62.24,0,0,1,2.36,7.34c.52,2.62,7.6,7.08,8.38,7.34s1.31-8.39,1.31-8.39l-2.09-10.22Z"
    style="fill: rgb(251,247,233); transform-origin: 134.415px 110.088px 0px;"
    id="eluvxj3t3myj8" class="animable">
    </path>
    <g style="clip-path: url(&quot;#freepik--clip-path-2--inject-1--inject-2&quot;); transform-origin: 134.56px 107.275px 0px;"
    id="elha37vu5uwus" class="animable">
      <g id="eltmyd64tl79h">
        <path d="M138.57,101.87a10.16,10.16,0,0,0-1.34-.28L130,104.14l-.95,2.48c.48,1.34,1.09,3.14,1.46,4.6a8.05,8.05,0,0,0,4.13,1.73c2.17.15,4.08-1.53,5.43-3.59Z"
        style="fill: #DDD4B5; opacity: 0.5; mix-blend-mode: multiply; transform-origin: 134.56px 107.275px 0px;"
        class="animable" id="eljzttu84w0xi">
        </path>
      </g>
    </g>
    <path d="M128.39,104.71a62.24,62.24,0,0,1,2.36,7.34c.52,2.62,7.6,7.08,8.38,7.34s1.31-8.39,1.31-8.39l-2.09-10.22Z"
    style="fill: none; stroke: rgb(38, 50, 56); stroke-linecap: round; stroke-linejoin: round; transform-origin: 134.415px 110.088px 0px;"
    id="elkfbkwezppkj" class="animable">
    </path>
    <path d="M123.67,100.25s-2.89-2.35-2.89,0,2.63,3.67,4.72,3.67" style="fill: rgb(251,247,233); stroke: rgb(38, 50, 56); stroke-linecap: round; stroke-linejoin: round; transform-origin: 123.14px 101.563px 0px;"
    id="eljmc3s72n16" class="animable">
    </path>
    <path d="M139.13,92.65s1.84-2.88,2.36.27a8,8,0,0,1-1.57,5.76Z" style="fill: rgb(251,247,233); stroke: rgb(38, 50, 56); stroke-linecap: round; stroke-linejoin: round; transform-origin: 140.337px 95.0632px 0px;"
    id="el9zeiqia7sl" class="animable">
    </path>
    <g id="el7cjzcby2zgn">
      <path d="M123.67,100.25s-2.89-2.35-2.89,0,2.63,3.67,4.72,3.67" style="fill: #DDD4B5; stroke: rgb(38, 50, 56); stroke-linecap: round; stroke-linejoin: round; opacity: 0.5; transform-origin: 123.14px 101.563px 0px;"
      class="animable" id="ely7c21vqzhhj">
      </path>
    </g>
    <g id="elsbb6uw6q03g">
      <path d="M139.13,92.65s1.84-2.88,2.36.27a8,8,0,0,1-1.57,5.76Z" style="fill: #DDD4B5; stroke: rgb(38, 50, 56); stroke-linecap: round; stroke-linejoin: round; opacity: 0.5; transform-origin: 140.337px 95.0632px 0px;"
      class="animable" id="el1iw7wpaw7oq">
      </path>
    </g>
    <path d="M120.42,92.67s2.25,9.37,7.08,14,10,4.67,11.79-3.58c1.47-6.8-2.18-15.87-2.18-15.87S125.33,77.52,120.42,92.67Z"
    style="fill: rgb(251,247,233); transform-origin: 130.029px 96.9821px 0px;"
    id="el0la4yska4uxe" class="animable">
    </path>
    <g style="clip-path: url(&quot;#freepik--clip-path-3--inject-1--inject-2&quot;); transform-origin: 134.224px 96.9652px 0px;"
    id="elqo07a3yg98" class="animable">
      <g id="el0mxuxxq37dhq">
        <path d="M128.81,84.17l1.83,4.6s2.88-.64,4.5,2.84,3.25,8.58,2.32,12.53c-.89,3.76-3,5-6.25,5.09,3.54,1.51,6.75,0,8.08-6.16,1.47-6.8-2.18-15.87-2.18-15.87S133.12,83.93,128.81,84.17Z"
        style="fill: #DDD4B5; opacity: 0.5; mix-blend-mode: multiply; transform-origin: 134.224px 96.9652px 0px;"
        class="animable" id="elyv02y5hqyw">
        </path>
      </g>
    </g>
    <path d="M120.42,92.67s2.25,9.37,7.08,14,10,4.67,11.79-3.58c1.47-6.8-2.18-15.87-2.18-15.87S125.33,77.52,120.42,92.67Z"
    style="fill: none; stroke: rgb(38, 50, 56); stroke-linecap: round; stroke-linejoin: round; transform-origin: 130.029px 96.9821px 0px;"
    id="el8604n2q0sb9" class="animable">
    </path>
    <path d="M129.36,97.62c.28.53.23,1.1-.11,1.28s-.84-.11-1.11-.64-.23-1.09.11-1.27S129.09,97.1,129.36,97.62Z"
    style="fill: rgb(38, 50, 56); transform-origin: 128.752px 97.945px 0px;"
    id="el62v9infuef" class="animable">
    </path>
    <path d="M134.58,96c.2.56.07,1.12-.29,1.24s-.82-.22-1-.78-.07-1.12.29-1.24S134.38,95.46,134.58,96Z"
    style="fill: rgb(38, 50, 56); transform-origin: 133.939px 96.2305px 0px;"
    id="elmvlzesoeyfa" class="animable">
    </path>
    <path d="M134.94,93a2.25,2.25,0,0,0-2.72.16c-1.44,1.12,1.28,6.73,1.28,6.73s.05,1.77-2.22.95"
    style="fill: none; stroke: rgb(38, 50, 56); stroke-linecap: round; stroke-linejoin: round; stroke-width: 0.5px; transform-origin: 133.11px 96.8372px 0px;"
    id="el9gx8x2kemqm" class="animable">
    </path>
    <path d="M134.94,102.66a2.58,2.58,0,0,1-4,1" style="fill: none; stroke: rgb(38, 50, 56); stroke-linecap: round; stroke-linejoin: round; stroke-width: 0.5px; transform-origin: 132.94px 103.448px 0px;"
    id="el34ngqa1hyli" class="animable">
    </path>
    <path d="M128.85,94.49s-2.56-2.41-3.68,2.24" style="fill: none; stroke: rgb(38, 50, 56); stroke-linecap: round; stroke-linejoin: round; stroke-width: 0.5px; transform-origin: 127.01px 95.2978px 0px;"
    id="elqmk2izju52h" class="animable">
    </path>
    <path d="M137.26,84.25c-2.81-2.44-5.08-2.41-6.07-2.09a6.71,6.71,0,0,0-3.07-1c-7.86-1.05-8.91,5-8.91,10.75s-5,12.58-1.57,13.37a4.1,4.1,0,0,0,4.72-2.36s3.67-6,3.67-10.23,4.57-3.83,4.57-3.83l0,0a2.44,2.44,0,0,1,3.68-.42c2.08,1.78,2.32,3.87,4,4.41s4.49-2.16,4.49-2.16A39.56,39.56,0,0,0,137.26,84.25Z"
    style="fill: rgb(38, 50, 56); transform-origin: 129.604px 93.217px 0px;"
    id="elpkuma8p7jri" class="animable">
    </path>
    <path d="M130.82,85.82s-3.16-2.54-6,.31-2.53,8.24-3.48,11.73-3.49,4.12-3.49,4.12"
    style="fill: none; stroke: rgb(251,247,233); stroke-linecap: round; stroke-linejoin: round; stroke-width: 0.5px; transform-origin: 124.335px 93.3788px 0px;"
    id="elld49ah7c0dk" class="animable">
    </path>
    <path d="M128.61,84.87s-3.41-3.38-7.7.9c-3.27,3.28-1.81,5.43-2.45,10.82"
    style="fill: none; stroke: rgb(251,247,233); stroke-linecap: round; stroke-linejoin: round; stroke-width: 0.5px; transform-origin: 123.535px 90.0964px 0px;"
    id="el52vftijhu55" class="animable">
    </path>
    <path d="M132.41,84.23s6-2.85,8.56,4.44" style="fill: none; stroke: rgb(251,247,233); stroke-linecap: round; stroke-linejoin: round; stroke-width: 0.5px; transform-origin: 136.69px 86.1756px 0px;"
    id="elspt3ppn1hu" class="animable">
    </path>
    <path d="M119.47,119.65l-9.07,36.5L137,163.69l1.31-4.72-17.47-8.06,5.93-21s-.78-3.93-5-8.38"
    style="fill: rgb(251,247,233); transform-origin: 124.355px 141.67px 0px;"
    id="el7gogl4fdot" class="animable">
    </path>
    <g style="clip-path: url(&quot;#freepik--clip-path-4--inject-1--inject-2&quot;); transform-origin: 125.96px 142.52px 0px;"
    id="el8esmkl2may3" class="animable">
      <g id="el9onyopz2id8">
        <path d="M138.35,159l-17.47-8.06,5.93-21a16.12,16.12,0,0,0-2.23-4.89l-.57-.43v5.8c0,3.71-4.64,15.54-6.27,18.32s-4.17,6.26-4.17,6.26l5.1-2.32L138,160.42Z"
        style="fill: #DDD4B5; opacity: 0.5; mix-blend-mode: multiply; transform-origin: 125.96px 142.52px 0px;"
        class="animable" id="elixad9vn6txb">
        </path>
      </g>
    </g>
    <path d="M119.47,119.65l-9.07,36.5L137,163.69l1.31-4.72-17.47-8.06,5.93-21s-.78-3.93-5-8.38"
    style="fill: none; stroke: rgb(38, 50, 56); stroke-linecap: round; stroke-linejoin: round; transform-origin: 124.355px 141.67px 0px;"
    id="eldvj1k5ssiop" class="animable">
    </path>
    <polygon points="194.26 130.61 174.12 126.38 153.55 102.61 156.59 121.73 169.21 133.75 194.57 134.91 194.26 130.61"
    style="fill: rgb(251,247,233); transform-origin: 174.06px 118.76px 0px;"
    id="elnpojh2xs3be" class="animable">
    </polygon>
    <g style="clip-path: url(&quot;#freepik--clip-path-5--inject-1--inject-2&quot;); transform-origin: 173.895px 117.495px 0px;"
    id="el3hmhvgrawdy" class="animable">
      <g id="elkofdj71ramd">
        <path d="M153.55,102.61,156,117.87l1.56,4.77.2.18c.59-.61,3.92-4.07,4.77-4.07s10.44,8.35,9.05,9l-1.4.69,23.89,3.94.17-1.83-20.1-4.22Z"
        style="fill: #DDD4B5; opacity: 0.5; mix-blend-mode: multiply; transform-origin: 173.895px 117.495px 0px;"
        class="animable" id="el6vijm1ncsrw">
        </path>
      </g>
    </g>
    <polygon points="194.26 130.61 174.12 126.38 153.55 102.61 156.59 121.73 169.21 133.75 194.57 134.91 194.26 130.61"
    style="fill: none; stroke: rgb(38, 50, 56); stroke-linecap: round; stroke-linejoin: round; transform-origin: 174.06px 118.76px 0px;"
    id="elrjiegt8i4ln" class="animable">
    </polygon>
    <path d="M382.27,333,125.8,295.42a3.11,3.11,0,0,1-2.62-3.53l21.36-145.71a3.1,3.1,0,0,1,3.52-2.62l4.86.71a3.09,3.09,0,0,0,3.14-1.52l6.45-11.15a2.94,2.94,0,0,1,.78-.9,7.15,7.15,0,0,1,5.23-1.28l64.65,9.48a7.14,7.14,0,0,1,3.87,1.86,3,3,0,0,1,.66,1L243.45,156a3.09,3.09,0,0,0,2.43,1.91l158.65,23.26a3.11,3.11,0,0,1,2.63,3.52L385.8,330.39A3.11,3.11,0,0,1,382.27,333Z"
    style="fill: rgb(38, 50, 56); stroke: rgb(38, 50, 56); stroke-miterlimit: 10; transform-origin: 265.169px 231.189px 0px;"
    id="elshihbcc3wmr" class="animable">
    </path>
    <path d="M385,332.29H130.79a5.62,5.62,0,0,1-5.62-5.62V184.43a5.62,5.62,0,0,1,5.62-5.62h.69a5.65,5.65,0,0,0,5.23-3.54l3.87-9.73a5.47,5.47,0,0,1,2.25-2.7,7.2,7.2,0,0,1,3.64-1h65.34a7.22,7.22,0,0,1,2.57.47,5.45,5.45,0,0,1,2.7,2.36L223.73,176a5.62,5.62,0,0,0,4.85,2.78H385a5.62,5.62,0,0,1,5.62,5.62V326.67A5.62,5.62,0,0,1,385,332.29Z"
    style="fill: #DDD4B5; transform-origin: 257.895px 247.065px 0px;" id="elsmqaj5isnqq"
    class="animable">
    </path>
    <g style="clip-path: url(&quot;#freepik--clip-path-6--inject-1--inject-2&quot;); transform-origin: 257.895px 247.065px 0px;"
    id="ellhjx26g8fb" class="animable">
      <g id="elg870e8nxz5h">
        <path d="M385,332.29H130.79a5.62,5.62,0,0,1-5.62-5.62V184.43a5.62,5.62,0,0,1,5.62-5.62h.69a5.65,5.65,0,0,0,5.23-3.54l3.87-9.73a5.47,5.47,0,0,1,2.25-2.7,7.2,7.2,0,0,1,3.64-1h65.34a7.22,7.22,0,0,1,2.57.47,5.45,5.45,0,0,1,2.7,2.36L223.73,176a5.62,5.62,0,0,0,4.85,2.78H385a5.62,5.62,0,0,1,5.62,5.62V326.67A5.62,5.62,0,0,1,385,332.29Z"
        style="fill: rgb(38, 50, 56); opacity: 0.1; transform-origin: 257.895px 247.065px 0px;"
        class="animable" id="elp3dxy70lyk">
        </path>
      </g>
    </g>
    <path d="M385,332.29H130.79a5.62,5.62,0,0,1-5.62-5.62V184.43a5.62,5.62,0,0,1,5.62-5.62h.69a5.65,5.65,0,0,0,5.23-3.54l3.87-9.73a5.47,5.47,0,0,1,2.25-2.7,7.2,7.2,0,0,1,3.64-1h65.34a7.22,7.22,0,0,1,2.57.47,5.45,5.45,0,0,1,2.7,2.36L223.73,176a5.62,5.62,0,0,0,4.85,2.78H385a5.62,5.62,0,0,1,5.62,5.62V326.67A5.62,5.62,0,0,1,385,332.29Z"
    style="fill: none; stroke: rgb(38, 50, 56); stroke-miterlimit: 10; transform-origin: 257.895px 247.065px 0px;"
    id="eljzmyl57s5vf" class="animable">
    </path>
    <path d="M197,178.33H156.32a3.66,3.66,0,0,1-3.66-3.66h0a3.66,3.66,0,0,1,3.66-3.67H197a3.67,3.67,0,0,1,3.67,3.67h0A3.66,3.66,0,0,1,197,178.33Z"
    style="fill: rgb(251,247,233); transform-origin: 176.665px 174.665px 0px;"
    id="elwmsvj39bbo" class="animable">
    </path>
    <path d="M385,357.11H130.79a5.62,5.62,0,0,1-5.62-5.62V209.25a5.62,5.62,0,0,1,5.62-5.62h.69a5.64,5.64,0,0,0,5.23-3.54l3.87-9.72a5.43,5.43,0,0,1,2.25-2.7,7.11,7.11,0,0,1,3.64-1h65.34a7.22,7.22,0,0,1,2.57.47,5.42,5.42,0,0,1,2.7,2.37l6.65,11.34a5.62,5.62,0,0,0,4.85,2.78H385a5.62,5.62,0,0,1,5.62,5.62V351.49A5.62,5.62,0,0,1,385,357.11Z"
    style="fill: rgb(38, 50, 56); stroke: rgb(38, 50, 56); stroke-miterlimit: 10; transform-origin: 257.895px 271.89px 0px;"
    id="elobq8or899vs" class="animable">
    </path>
    <path d="M216.49,149l-40.36-5a3.68,3.68,0,0,1-3.19-4.09h0a3.67,3.67,0,0,1,4.1-3.18l40.35,5a3.67,3.67,0,0,1,3.19,4.09h0A3.66,3.66,0,0,1,216.49,149Z"
    style="fill: #DDD4B5; transform-origin: 196.761px 142.865px 0px;" id="elpn1wnakl82"
    class="animable">
    </path>
    <g id="el3opwyrfjiir">
      <path d="M216.49,149l-40.36-5a3.68,3.68,0,0,1-3.19-4.09h0a3.67,3.67,0,0,1,4.1-3.18l40.35,5a3.67,3.67,0,0,1,3.19,4.09h0A3.66,3.66,0,0,1,216.49,149Z"
      style="fill: rgb(251,247,233); opacity: 0.5; transform-origin: 196.761px 142.865px 0px;"
      class="animable" id="elkvymgt7xics">
      </path>
    </g>
    <path d="M197,203.16H156.32a3.66,3.66,0,0,1-3.66-3.67h0a3.67,3.67,0,0,1,3.66-3.67H197a3.67,3.67,0,0,1,3.67,3.67h0A3.67,3.67,0,0,1,197,203.16Z"
    style="fill: #DDD4B5; transform-origin: 176.665px 199.49px 0px;" id="ellled9xi27rm"
    class="animable">
    </path>
    <g id="eltsk08ye0h">
      <path d="M197,203.16H156.32a3.66,3.66,0,0,1-3.66-3.67h0a3.67,3.67,0,0,1,3.66-3.67H197a3.67,3.67,0,0,1,3.67,3.67h0A3.67,3.67,0,0,1,197,203.16Z"
      style="fill: rgb(251,247,233); opacity: 0.5; transform-origin: 176.665px 199.49px 0px;"
      class="animable" id="eltvwlw9bimr">
      </path>
    </g>
    <rect x="117.2" y="246.41" width="281.38" height="174.43" rx="5.27" style="fill: rgb(221,212,181); transform-origin: 257.89px 333.625px 0px;"
    id="elon9ilscdks" class="animable">
    </rect>
    <g style="clip-path: url(&quot;#freepik--clip-path-7--inject-1--inject-2&quot;); transform-origin: 266.185px 357.1px 0px;"
    id="el9n1m4dz6qht" class="animable">
      <path d="M398.58,293.36a421.52,421.52,0,0,1-105.1,71.9c-56.85,27.19-121.83,45.93-159.69,55.58H393.3a5.27,5.27,0,0,0,5.28-5.27Z"
      style="fill: #DDD4B5; mix-blend-mode: multiply; transform-origin: 266.185px 357.1px 0px;"
      id="elp87nzbzdolb" class="animable">
      </path>
      <g id="elcioc4moai5t">
        <path d="M398.58,293.36a421.52,421.52,0,0,1-105.1,71.9c-56.85,27.19-121.83,45.93-159.69,55.58H393.3a5.27,5.27,0,0,0,5.28-5.27Z"
        style="fill: rgb(251,247,233); opacity: 0.2; transform-origin: 266.185px 357.1px 0px;"
        class="animable" id="elrm657uhlreh">
        </path>
      </g>
    </g>
    <rect x="117.2" y="246.41" width="281.38" height="174.43" rx="5.27" style="fill: none; stroke: rgb(38, 50, 56); stroke-miterlimit: 10; transform-origin: 257.89px 333.625px 0px;"
    id="ellm9as5ba72h" class="animable">
    </rect>
    <path d="M121.27,261.73v-7a5.28,5.28,0,0,1,5.28-5.27H138" style="fill: none; stroke: rgb(38, 50, 56); stroke-miterlimit: 10; transform-origin: 129.635px 255.595px 0px;"
    id="ely0uxggxfes" class="animable">
    </path>
    <line x1="121.27" y1="368.04" x2="121.27" y2="270.26" style="fill: none; stroke: rgb(38, 50, 56); stroke-miterlimit: 10; transform-origin: 121.27px 319.15px 0px;"
    id="eli8frlura7wj" class="animable">
    </line>
    <path d="M394.5,401.4v11.07a5.27,5.27,0,0,1-5.27,5.28H380" style="fill: none; stroke: rgb(38, 50, 56); stroke-miterlimit: 10; transform-origin: 387.25px 409.575px 0px;"
    id="elbcbnu8vyisb" class="animable">
    </path>
    <line x1="394.5" y1="259.27" x2="394.5" y2="393.17" style="fill: none; stroke: rgb(38, 50, 56); stroke-miterlimit: 10; transform-origin: 394.5px 326.22px 0px;"
    id="elga1dbzt1ka" class="animable">
    </line>
    <rect x="213.32" y="310.19" width="89.13" height="48.15" rx="2.73" style="fill: rgb(38, 50, 56); stroke: rgb(38, 50, 56); stroke-miterlimit: 10; transform-origin: 257.885px 334.265px 0px;"
    id="el1xt0dxnmr22" class="animable">
    </rect>
    <rect x="213.32" y="310.19" width="89.13" height="14.64" rx="2.73" style="fill: rgb(251,247,233); stroke: rgb(38, 50, 56); stroke-miterlimit: 10; transform-origin: 257.885px 317.51px 0px;"
    id="el6tjymb3f6zl" class="animable">
    </rect>
    <path d="M137,163.69l1.83,3.41,3.89,2.8a1.51,1.51,0,0,0,1.7.06l.34-.22a1.19,1.19,0,0,0,.47-1.5l-2.21-5.08,1.49,1.16a1.15,1.15,0,0,0,1.59-.18h0a1.16,1.16,0,0,0,0-1.45l-3.47-4.39-4.34.67Z"
    style="fill: rgb(251,247,233); stroke: rgb(38, 50, 56); stroke-miterlimit: 10; transform-origin: 141.677px 164.247px 0px;"
    id="elvz1nd5xapjg" class="animable">
    </path>
    <line x1="144.8" y1="169.74" x2="141.32" y2="165.17" style="fill: none; stroke: rgb(38, 50, 56); stroke-linecap: round; stroke-linejoin: round; stroke-width: 0.5px; transform-origin: 143.06px 167.455px 0px;"
    id="el8q5ciel4lje" class="animable">
    </line>
    <line x1="142.76" y1="169.9" x2="140.03" y2="166.28" style="fill: none; stroke: rgb(38, 50, 56); stroke-linecap: round; stroke-linejoin: round; stroke-width: 0.5px; transform-origin: 141.395px 168.09px 0px;"
    id="elmik7yyjwveh" class="animable">
    </line>
    <path d="M194.26,130.61l5.44.32,6.62,4.23s.37,1.29-.55,1.47-5.89-1.65-5.89-1.65l-5.31-.07Z"
    style="fill: rgb(251,247,233); stroke: rgb(38, 50, 56); stroke-miterlimit: 10; transform-origin: 200.327px 133.626px 0px;"
    id="elu0ill1o99co" class="animable">
    </path>
    <path d="M194.54,134.24l5.71,2.58s.92-1.29-.37-1.84L198,133.69" style="fill: rgb(251,247,233); stroke: rgb(38, 50, 56); stroke-linejoin: round; transform-origin: 197.554px 135.255px 0px;"
    id="ely3vjynzpm" class="animable">
    </path>
  </g>
  <g id="freepik--character-2--inject-1--inject-2" style="transform-origin: 416.28px 321.069px 0px;"
  class="animable">
    <path d="M396.27,231.76l-2.36-7.06-2.65-3.63a.36.36,0,0,0-.66.22v10.46l2,2.63Z"
    style="fill: rgb(251,247,233); transform-origin: 393.435px 227.644px 0px;"
    id="el6q9ykhvmq6" class="animable">
    </path>
    <path d="M434.73,262.63l-19.8.7a3.85,3.85,0,0,1-3.56-2.09l-15.1-29.48s-3.4,1.84-3.66,2.62,11.18,29.47,14.69,38.28a3.85,3.85,0,0,0,3.73,2.42l22.13-.94"
    style="fill: rgb(251,247,233); stroke: rgb(38, 50, 56); stroke-miterlimit: 10; transform-origin: 413.668px 253.422px 0px;"
    id="el12vekkeejl0b" class="animable">
    </path>
    <line x1="397.72" y1="235.43" x2="394.62" y2="236.71" style="fill: rgb(251,247,233); stroke: rgb(38, 50, 56); stroke-miterlimit: 10; stroke-width: 0.75px; transform-origin: 396.17px 236.07px 0px;"
    id="elmt5857fbe0p" class="animable">
    </line>
    <g id="elcvu7pfvyhje">
      <g style="opacity: 0.5; transform-origin: 413.668px 253.422px 0px;" class="animable"
      id="eleja468g7uuj">
        <path d="M434.73,262.63l-19.8.7a3.85,3.85,0,0,1-3.56-2.09l-15.1-29.48s-3.4,1.84-3.66,2.62,11.18,29.47,14.69,38.28a3.85,3.85,0,0,0,3.73,2.42l22.13-.94"
        style="fill: #DDD4B5; stroke: rgb(38, 50, 56); stroke-miterlimit: 10; transform-origin: 413.668px 253.422px 0px;"
        id="elhkwzke3h65c" class="animable">
        </path>
        <line x1="397.72" y1="235.43" x2="394.62" y2="236.71" style="fill: #DDD4B5; stroke: rgb(38, 50, 56); stroke-miterlimit: 10; stroke-width: 0.75px; transform-origin: 396.17px 236.07px 0px;"
        id="elmhfe7xd6pb" class="animable">
        </line>
      </g>
    </g>
    <path d="M396.27,231.76l-2.36-7.06-2.65-3.63a.36.36,0,0,0-.66.22v10.46l2,2.63Z"
    style="fill: #DDD4B5; transform-origin: 393.435px 227.644px 0px;" id="elty0eqi8tiyf"
    class="animable">
    </path>
    <g style="clip-path: url(&quot;#freepik--clip-path-8--inject-1--inject-2&quot;); transform-origin: 393.435px 227.644px 0px;"
    id="elqxzdz07bjh" class="animable">
      <g id="elzjzgikwo71">
        <path d="M396.27,231.76l-2.36-7.06-2.65-3.63a.36.36,0,0,0-.66.22v10.46l2,2.63Z"
        style="fill: rgb(251,247,233); opacity: 0.5; transform-origin: 393.435px 227.644px 0px;"
        class="animable" id="elm7mya5am49">
        </path>
      </g>
    </g>
    <path d="M396.27,231.76l-2.36-7.06-2.65-3.63a.36.36,0,0,0-.66.22v10.46l2,2.63Z"
    style="fill: none; stroke: rgb(38, 50, 56); stroke-miterlimit: 10; transform-origin: 393.435px 227.644px 0px;"
    id="ellv28chh92fg" class="animable">
    </path>
    <path d="M440.86,244a10.76,10.76,0,0,0-2,4.09c-.29,1.92.17,9.31.17,9.31l-10.3,1.16s.78-7.51.82-8.76A11.14,11.14,0,0,1,435,242.4C438.54,240.66,441.55,241.51,440.86,244Z"
    style="fill: rgb(251,247,233); transform-origin: 434.845px 250.022px 0px;"
    id="el8yhfphfx04k" class="animable">
    </path>
    <g style="clip-path: url(&quot;#freepik--clip-path-9--inject-1--inject-2&quot;); transform-origin: 435.015px 250.135px 0px;"
    id="elrn7sdmqukge" class="animable">
      <g id="elw7e0bfqw7xb">
        <path d="M440.79,244.08c-1.87-.51-4.14-1.08-6.06-1.54a11.18,11.18,0,0,0-5.21,7.25c0,.48-.14,1.88-.28,3.42,1-.23,2.59-.58,3.77-.79a16.55,16.55,0,0,0,2.75-.69l-.35,6,.23,0,3.36-.38s-.46-7.39-.17-9.31A10.51,10.51,0,0,1,440.79,244.08Z"
        style="fill: #DDD4B5; opacity: 0.5; mix-blend-mode: multiply; transform-origin: 435.015px 250.135px 0px;"
        class="animable" id="el41itkxzl5ti">
        </path>
      </g>
    </g>
    <path d="M440.86,244a10.76,10.76,0,0,0-2,4.09c-.29,1.92.17,9.31.17,9.31l-10.3,1.16s.78-7.51.82-8.76A11.14,11.14,0,0,1,435,242.4C438.54,240.66,441.55,241.51,440.86,244Z"
    style="fill: none; stroke: rgb(38, 50, 56); stroke-miterlimit: 10; stroke-width: 1.00396px; transform-origin: 434.845px 250.022px 0px;"
    id="elwcwd9aisqhb" class="animable">
    </path>
    <path d="M443,245.27c8.54-11.28-12.05-23-17.46-11.79a21.12,21.12,0,0,0-1.78,4.36c-.82.5-3,1.84-3.4,2.21s1,1.32,1.77,1.79c-1.47,3.61-1.25,7.41-.83,8.27.73,1.48,4.33,1.5,6.7,1.06s3.31-2.71,4-3.33,4.13.17,5.34.53S441.34,247.5,443,245.27Z"
    style="fill: rgb(251,247,233); transform-origin: 432.669px 240.181px 0px;"
    id="elwpeznb5qt8" class="animable">
    </path>
    <g style="clip-path: url(&quot;#freepik--clip-path-10--inject-1--inject-2&quot;); transform-origin: 430.58px 247.804px 0px;"
    id="eljeveqlvsnn" class="animable">
      <g id="eljekjrp9ghur">
        <path d="M434.55,244.19s.18.85-1.54,1.54-2.06.17-2.57,1.37a4.28,4.28,0,0,1-3.43,3.09,41.07,41.07,0,0,1-4.93.63c1.36.76,4.06.7,6,.35,2.36-.43,3.31-2.71,4-3.33s4.13.17,5.34.53a2.2,2.2,0,0,0,.86,0,9.38,9.38,0,0,0,.8-3.18Z"
        style="fill: #DDD4B5; opacity: 0.5; mix-blend-mode: multiply; transform-origin: 430.58px 247.804px 0px;"
        class="animable" id="el9xitxygnnh6">
        </path>
      </g>
    </g>
    <path d="M443,245.27c8.54-11.28-12.05-23-17.46-11.79a21.12,21.12,0,0,0-1.78,4.36c-.82.5-3,1.84-3.4,2.21s1,1.32,1.77,1.79c-1.47,3.61-1.25,7.41-.83,8.27.73,1.48,4.33,1.5,6.7,1.06s3.31-2.71,4-3.33,4.13.17,5.34.53S441.34,247.5,443,245.27Z"
    style="fill: none; stroke: rgb(38, 50, 56); stroke-miterlimit: 10; transform-origin: 432.669px 240.181px 0px;"
    id="eld6tnp03662" class="animable">
    </path>
    <path d="M426.32,238.83c-.22.48-.59.78-.83.67s-.26-.59,0-1.07.59-.78.83-.67S426.54,238.35,426.32,238.83Z"
    style="fill: rgb(38, 50, 56); transform-origin: 425.898px 238.63px 0px;"
    id="el3cw6598vgrx" class="animable">
    </path>
    <path d="M426.12,235.75s1-.83,1.2,1.08" style="fill: none; stroke: rgb(38, 50, 56); stroke-linecap: round; stroke-linejoin: round; stroke-width: 0.5px; transform-origin: 426.72px 236.2px 0px;"
    id="eldgr021uvqb9" class="animable">
    </path>
    <path d="M421.93,243.78s0,1,1.8,1" style="fill: none; stroke: rgb(38, 50, 56); stroke-linecap: round; stroke-linejoin: round; stroke-width: 0.5px; transform-origin: 422.83px 244.28px 0px;"
    id="el3vz4eywyy6h" class="animable">
    </path>
    <path d="M419.49,309.22,418.7,319s-5.47,38.94-5.21,43.41.85,50.65.85,50.65l6.59,1.05,7.4-51.22,10.39-52.05Z"
    style="fill: #DDD4B5; stroke: rgb(38, 50, 56); stroke-miterlimit: 10; transform-origin: 426.101px 361.665px 0px;"
    id="ela28ajif01jd" class="animable">
    </path>
    <g id="el06g6kdmkovpd">
      <path d="M419.49,309.22,418.7,319s-5.47,38.94-5.21,43.41.85,50.65.85,50.65l6.59,1.05,7.4-51.22,10.39-52.05Z"
      style="fill: rgb(38, 50, 56); opacity: 0.2; transform-origin: 426.101px 361.665px 0px;"
      class="animable" id="elr3eihvmka1">
      </path>
    </g>
    <path d="M427.83,344.79s-2.53,14.89-4.44,22.19-1.9,14.58-1.9,22.5S418.64,412,418.64,412"
    style="fill: none; stroke: rgb(38, 50, 56); stroke-miterlimit: 10; stroke-width: 0.75px; transform-origin: 423.235px 378.395px 0px;"
    id="elfgp6ryqdyjp" class="animable">
    </path>
    <path d="M432.86,306.82c4.34-2.28,9-3.79,10.33-.76,2.64,6.06-.52,15.27-.52,15.27l2.41,42.48,4.41,51.25L442.9,414s-10.12-43.25-11.7-45.89-4.07-39.67-4.07-39.67l-5-4.55"
    style="fill: #DDD4B5; stroke: rgb(38, 50, 56); stroke-miterlimit: 10; transform-origin: 435.81px 359.711px 0px;"
    id="elqle331ozg8s" class="animable">
    </path>
    <g id="elhhqsq6ldgct">
      <g style="opacity: 0.2; transform-origin: 435.81px 359.711px 0px;" class="animable"
      id="elfpdhai3z07">
        <path d="M432.86,306.82c4.34-2.28,9-3.79,10.33-.76,2.64,6.06-.52,15.27-.52,15.27l2.41,42.48,4.41,51.25L442.9,414s-10.12-43.25-11.7-45.89-4.07-39.67-4.07-39.67l-5-4.55"
        style="fill: rgb(38, 50, 56); transform-origin: 435.81px 359.711px 0px;"
        id="elg915gaeztf5" class="animable">
        </path>
      </g>
    </g>
    <path d="M438,339c.15,9.85,1.15,14.59,1.93,17.19.95,3.17.63,9.19.63,12s-1.27-.63,1.59,12.37,4.75,31.06,4.75,31.06"
    style="fill: none; stroke: rgb(38, 50, 56); stroke-miterlimit: 10; stroke-width: 0.75px; transform-origin: 442.45px 375.31px 0px;"
    id="el0xvium57fo3" class="animable">
    </path>
    <path d="M438,317.53s.31-.64,0,14.26c0,.8,0,1.57,0,2.32" style="fill: none; stroke: rgb(38, 50, 56); stroke-miterlimit: 10; stroke-width: 0.75px; transform-origin: 438.069px 325.818px 0px;"
    id="elao53edvngsw" class="animable">
    </path>
    <polyline points="423.37 314.7 423.16 319.16 422.13 322.26 423.67 324.06"
    style="fill: none; stroke: rgb(38, 50, 56); stroke-linecap: round; stroke-linejoin: round; stroke-width: 0.75px; transform-origin: 422.9px 319.38px 0px;"
    id="elmy3zgbm8azj" class="animable">
    </polyline>
    <path d="M421.35,317.36s2.58,2.58,9.28,1.8" style="fill: none; stroke: rgb(38, 50, 56); stroke-linecap: round; stroke-linejoin: round; stroke-width: 0.75px; transform-origin: 425.99px 318.333px 0px;"
    id="elvi7xdlyvwom" class="animable">
    </path>
    <path d="M437.18,315.13c5-1,5.32-2.38,7.05-3.54a14.43,14.43,0,0,0-1-5.53c-1.31-3-6-1.52-10.33.76l-2.1,3.32-11.27-.92-.36,4.42A36.82,36.82,0,0,0,437.18,315.13Z"
    style="fill: rgb(38, 50, 56); transform-origin: 431.701px 310.004px 0px;"
    id="elq8vv6sgm4x" class="animable">
    </path>
    <polygon points="420.62 312.28 420.51 314.04 423.37 314.7 423.59 312.39 420.62 312.28"
    style="fill: rgb(251,247,233); stroke: rgb(38, 50, 56); stroke-miterlimit: 10; stroke-width: 0.75px; transform-origin: 422.05px 313.49px 0px;"
    id="el30pexat5a3" class="animable">
    </polygon>
    <polyline points="440.58 314.89 440.1 310.51 441.55 310.03 442.28 313.92"
    style="fill: #DDD4B5; stroke: rgb(38, 50, 56); stroke-miterlimit: 10; transform-origin: 441.19px 312.46px 0px;"
    id="elz23eimpl62r" class="animable">
    </polyline>
    <polyline points="429.4 316.35 428.43 311.24 430.86 311.24 431.83 315.62"
    style="fill: #DDD4B5; stroke: rgb(38, 50, 56); stroke-miterlimit: 10; transform-origin: 430.13px 313.795px 0px;"
    id="elr1al0eboyq8" class="animable">
    </polyline>
    <g id="ele305vanie3h">
      <g style="opacity: 0.2; transform-origin: 435.355px 313.19px 0px;" class="animable"
      id="el70dqq9dj2zw">
        <polyline points="440.58 314.89 440.1 310.51 441.55 310.03 442.28 313.92"
        style="fill: rgb(38, 50, 56); transform-origin: 441.19px 312.46px 0px;"
        id="el8je36oenhq" class="animable">
        </polyline>
        <polyline points="429.4 316.35 428.43 311.24 430.86 311.24 431.83 315.62"
        style="fill: rgb(38, 50, 56); transform-origin: 430.13px 313.795px 0px;"
        id="elzp9l59ckc79" class="animable">
        </polyline>
      </g>
    </g>
    <path d="M418.2,270.46s-.83,5.55-3.32,15-5,20.78-5,20.78l1.39,5.82,4.15-6.1Z"
    style="fill: rgb(38, 50, 56); stroke: rgb(38, 50, 56); stroke-miterlimit: 10; transform-origin: 414.04px 291.26px 0px;"
    id="elfnbmx2w7ttk" class="animable">
    </path>
    <path d="M425.13,262.43s-5.82,1.38-6.37,4.15a23,23,0,0,0-.56,3.88l8.87-7.2,11.09-4.44Z"
    style="fill: rgb(38, 50, 56); stroke: rgb(38, 50, 56); stroke-miterlimit: 10; transform-origin: 428.18px 264.64px 0px;"
    id="eldqwc6vixtnh" class="animable">
    </path>
    <path d="M426.72,260.29s-4.73,5.35-6.61,7.55-1.89,25.81-1.89,29.28-1.88,12.89,1.26,14.78,22.35,1.26,24.24-1.89,3.14-40.91,2.83-44.37a9.63,9.63,0,0,0-5.36-7.24C439,257.39,426.72,260.29,426.72,260.29Z"
    style="fill: rgb(251,247,233); transform-origin: 432.129px 285.575px 0px;"
    id="elhaddftebucv" class="animable">
    </path>
    <g style="clip-path: url(&quot;#freepik--clip-path-11--inject-1--inject-2&quot;); transform-origin: 433.779px 285.59px 0px;"
    id="el0c2wue779lqd" class="animable">
      <g id="el1cgunvvabvo">
        <path d="M441.19,258.4a2.51,2.51,0,0,0-.82-.18l-1.36.71a12.9,12.9,0,0,1,4.46,7.38A39.23,39.23,0,0,1,443.3,279c-.68,4.63-11.66,0-9.6,1.72s9.77,4.63,10.12,6.17S440,291,438.5,291.18s1,3.6,2.57,6.51,1,7-2.57,9.78-11.86,4.15-15.44,4.29c-1.16,0-1.88.3-2.1.64,5.5,1.23,21.07.43,22.76-2.39,1.89-3.15,3.14-40.91,2.83-44.37A9.63,9.63,0,0,0,441.19,258.4Z"
        style="fill: #DDD4B5; opacity: 0.5; mix-blend-mode: multiply; transform-origin: 433.779px 285.59px 0px;"
        class="animable" id="elj19wjs7rhsr">
        </path>
      </g>
    </g>
    <path d="M426.72,260.29s-4.73,5.35-6.61,7.55-1.89,25.81-1.89,29.28-1.88,12.89,1.26,14.78,22.35,1.26,24.24-1.89,3.14-40.91,2.83-44.37a9.63,9.63,0,0,0-5.36-7.24C439,257.39,426.72,260.29,426.72,260.29Z"
    style="fill: none; stroke: rgb(38, 50, 56); stroke-miterlimit: 10; transform-origin: 432.129px 285.575px 0px;"
    id="elywfwj4vq2t" class="animable">
    </path>
    <path d="M436.39,284.24c-5.07-1.58-9.51-6-9.51-6a21.45,21.45,0,0,0,8.56,13"
    style="fill: rgb(251,247,233); stroke: rgb(38, 50, 56); stroke-linecap: round; stroke-linejoin: round; stroke-width: 0.75px; transform-origin: 431.635px 284.74px 0px;"
    id="elrtz40irk55s" class="animable">
    </path>
    <polygon points="440.25 254.94 425.14 258.4 424.2 262.81 441.19 258.4 440.25 254.94"
    style="fill: rgb(251,247,233); stroke: rgb(38, 50, 56); stroke-miterlimit: 10; transform-origin: 432.695px 258.875px 0px;"
    id="eltklds2jd09d" class="animable">
    </polygon>
    <polygon points="421.81 420.71 420.93 414.07 414.34 413.02 408.85 416.93 403.93 419.63 403.93 420.71 421.81 420.71"
    style="fill: rgb(38, 50, 56); stroke: rgb(38, 50, 56); stroke-miterlimit: 10; transform-origin: 412.87px 416.865px 0px;"
    id="el1w0us1tvom8" class="animable">
    </polygon>
    <polygon points="450.31 421.23 449.49 415.06 442.9 414 437.41 417.91 432.49 420.62 432.49 421.23 450.31 421.23"
    style="fill: rgb(38, 50, 56); stroke: rgb(38, 50, 56); stroke-miterlimit: 10; transform-origin: 441.4px 417.615px 0px;"
    id="elbakszc8d5xe" class="animable">
    </polygon>
    <path d="M393.39,226l-4.06-2.35s-1.58-.19-.9,1.57l4.06,3.13" style="fill: rgb(251,247,233); stroke: rgb(38, 50, 56); stroke-linecap: round; stroke-linejoin: round; transform-origin: 390.825px 225.997px 0px;"
    id="elwgonme5hs6a" class="animable">
    </path>
    <path d="M392.79,232.11a4.06,4.06,0,0,0-.83-1.3l-.76-.82,0,0-4.13-5.12s-1.28-.86-1,1l2.56,5-4.55-4.27s-.86-.71-.86.29,4.13,5.41,4.13,5.41l-4.56-2.14s-1,.71-.28,1.42,4.55,2.14,4.55,2.14l-3.41-.14s-1,.85-.29,1.14,4.7,1.13,4.7,1.13a5.68,5.68,0,0,0,1.71,1l1,1.85,3.83-1.93Z"
    style="fill: rgb(251,247,233); stroke: rgb(38, 50, 56); stroke-linecap: round; stroke-linejoin: round; transform-origin: 388.425px 231.686px 0px;"
    id="el7ryddu0raho" class="animable">
    </path>
    <path d="M433.68,276.5l-22.82,5.35a5.13,5.13,0,0,1-5.67-3.19l-14.4-40,3.83-1.93,15.91,29.47a3.56,3.56,0,0,0,3.84,1.81l17.45-4.93"
    style="fill: rgb(251,247,233); transform-origin: 412.235px 259.329px 0px;"
    id="el6jzvtzv9l2n" class="animable">
    </path>
    <path d="M433.68,276.5l-22.82,5.35a5.13,5.13,0,0,1-5.67-3.19l-14.4-40,3.83-1.93,15.91,29.47a3.56,3.56,0,0,0,3.84,1.81l17.45-4.93"
    style="fill: none; stroke: rgb(38, 50, 56); stroke-miterlimit: 10; transform-origin: 412.235px 259.329px 0px;"
    id="elqej9j0kif9c" class="animable">
    </path>
    <line x1="396.77" y1="240.5" x2="392.33" y2="242.72" style="fill: none; stroke: rgb(38, 50, 56); stroke-miterlimit: 10; stroke-width: 0.75px; transform-origin: 394.55px 241.61px 0px;"
    id="el7xg88vhz7v3" class="animable">
    </line>
    <path d="M430.84,233.6s-2.43,2.43-1.22,4.25a12.11,12.11,0,0,1,1.62,3.43s-1,2.43-.2,2.43.4-1.82,1.82-1.41,2.83,2.83,1.62,3.64a13.82,13.82,0,0,1-2.86,1.2.68.68,0,0,0-.14,1.24,9.63,9.63,0,0,0,4.41,1.6,15.46,15.46,0,0,0,3.84-.4s4-5.46,6.88-6.88,1.62-7.89,1.62-8.7-2.83-2.63-2.83-2.63.81-1.82-2.83-5.86-10.52-4.86-10.72-3.44a2,2,0,0,0,.81,2s-6.07-2.63-8.9.2S430.84,233.6,430.84,233.6Z"
    style="fill: rgb(38, 50, 56); stroke: rgb(38, 50, 56); stroke-miterlimit: 10; transform-origin: 435.878px 235.703px 0px;"
    id="elz9ev72iogon" class="animable">
    </path>
    <path d="M430.84,233.6s4.92,6,12.21,6.58" style="fill: none; stroke: rgb(251,247,233); stroke-linecap: round; stroke-linejoin: round; stroke-width: 0.5px; transform-origin: 436.945px 236.89px 0px;"
    id="elpcy6ykys02l" class="animable">
    </path>
    <path d="M429.1,235.43s2.29,6.66,11.76,8.56" style="fill: none; stroke: rgb(251,247,233); stroke-linecap: round; stroke-linejoin: round; stroke-width: 0.5px; transform-origin: 434.98px 239.71px 0px;"
    id="elepfwxb8o9u" class="animable">
    </path>
  </g>
  <defs>
    <clipPath id="freepik--clip-path--inject-1--inject-2">
      <path d="M159.1,139.1l0,0-5.5-36.44L137.3,106l-8.13,5.24s-9.7,7.61-9.7,8.39,16.41,28.24,16.41,28.24A30.42,30.42,0,0,0,159.1,139.1Z"
      style="fill:#fff;stroke:#263238;stroke-linecap:round;stroke-linejoin:round">
      </path>
    </clipPath>
    <clipPath id="freepik--clip-path-2--inject-1--inject-2">
      <path d="M128.39,104.71a62.24,62.24,0,0,1,2.36,7.34c.52,2.62,7.6,7.08,8.38,7.34s1.31-8.39,1.31-8.39l-2.09-10.22Z"
      style="fill:#fff;stroke:#263238;stroke-linecap:round;stroke-linejoin:round">
      </path>
    </clipPath>
    <clipPath id="freepik--clip-path-3--inject-1--inject-2">
      <path d="M120.42,92.67s2.25,9.37,7.08,14,10,4.67,11.79-3.58c1.47-6.8-2.18-15.87-2.18-15.87S125.33,77.52,120.42,92.67Z"
      style="fill:#fff;stroke:#263238;stroke-linecap:round;stroke-linejoin:round">
      </path>
    </clipPath>
    <clipPath id="freepik--clip-path-4--inject-1--inject-2">
      <path d="M119.47,119.65l-9.07,36.5L137,163.69l1.31-4.72-17.47-8.06,5.93-21s-.78-3.93-5-8.38"
      style="fill:#fff;stroke:#263238;stroke-linecap:round;stroke-linejoin:round">
      </path>
    </clipPath>
    <clipPath id="freepik--clip-path-5--inject-1--inject-2">
      <polygon points="194.26 130.61 174.12 126.38 153.55 102.61 156.59 121.73 169.21 133.75 194.57 134.91 194.26 130.61"
      style="fill:#fff;stroke:#263238;stroke-linecap:round;stroke-linejoin:round">
      </polygon>
    </clipPath>
    <clipPath id="freepik--clip-path-6--inject-1--inject-2">
      <path d="M385,332.29H130.79a5.62,5.62,0,0,1-5.62-5.62V184.43a5.62,5.62,0,0,1,5.62-5.62h.69a5.65,5.65,0,0,0,5.23-3.54l3.87-9.73a5.47,5.47,0,0,1,2.25-2.7,7.2,7.2,0,0,1,3.64-1h65.34a7.22,7.22,0,0,1,2.57.47,5.45,5.45,0,0,1,2.7,2.36L223.73,176a5.62,5.62,0,0,0,4.85,2.78H385a5.62,5.62,0,0,1,5.62,5.62V326.67A5.62,5.62,0,0,1,385,332.29Z"
      style="fill:#92E3A9;stroke:#263238;stroke-miterlimit:10">
      </path>
    </clipPath>
    <clipPath id="freepik--clip-path-7--inject-1--inject-2">
      <rect x="117.2" y="246.41" width="281.38" height="174.43" rx="5.27" style="fill:#fff;stroke:#263238;stroke-miterlimit:10">
      </rect>
    </clipPath>
    <clipPath id="freepik--clip-path-8--inject-1--inject-2">
      <path d="M396.27,231.76l-2.36-7.06-2.65-3.63a.36.36,0,0,0-.66.22v10.46l2,2.63Z"
      style="fill:#92E3A9;stroke:#263238;stroke-miterlimit:10">
      </path>
    </clipPath>
    <clipPath id="freepik--clip-path-9--inject-1--inject-2">
      <path d="M440.86,244a10.76,10.76,0,0,0-2,4.09c-.29,1.92.17,9.31.17,9.31l-10.3,1.16s.78-7.51.82-8.76A11.14,11.14,0,0,1,435,242.4C438.54,240.66,441.55,241.51,440.86,244Z"
      style="fill:#fff;stroke:#263238;stroke-miterlimit:10;stroke-width:1.0039600000000002px">
      </path>
    </clipPath>
    <clipPath id="freepik--clip-path-10--inject-1--inject-2">
      <path d="M443,245.27c8.54-11.28-12.05-23-17.46-11.79a21.12,21.12,0,0,0-1.78,4.36c-.82.5-3,1.84-3.4,2.21s1,1.32,1.77,1.79c-1.47,3.61-1.25,7.41-.83,8.27.73,1.48,4.33,1.5,6.7,1.06s3.31-2.71,4-3.33,4.13.17,5.34.53S441.34,247.5,443,245.27Z"
      style="fill:#fff;stroke:#263238;stroke-miterlimit:10">
      </path>
    </clipPath>
    <clipPath id="freepik--clip-path-11--inject-1--inject-2">
      <path d="M426.72,260.29s-4.73,5.35-6.61,7.55-1.89,25.81-1.89,29.28-1.88,12.89,1.26,14.78,22.35,1.26,24.24-1.89,3.14-40.91,2.83-44.37a9.63,9.63,0,0,0-5.36-7.24C439,257.39,426.72,260.29,426.72,260.29Z"
      style="fill:#fff;stroke:#263238;stroke-miterlimit:10">
      </path>
    </clipPath>
  </defs>
  <defs>
    <filter id="active" height="200%">
      <feMorphology in="SourceAlpha" result="DILATED" operator="dilate" radius="2">
      </feMorphology>
      <feFlood flood-color="#32DFEC" flood-opacity="1" result="PINK">
      </feFlood>
      <feComposite in="PINK" in2="DILATED" operator="in" result="OUTLINE">
      </feComposite>
      <feMerge>
        <feMergeNode in="OUTLINE">
        </feMergeNode>
        <feMergeNode in="SourceGraphic">
        </feMergeNode>
      </feMerge>
    </filter>
    <filter id="hover" height="200%">
      <feMorphology in="SourceAlpha" result="DILATED" operator="dilate" radius="2">
      </feMorphology>
      <feFlood flood-color="#ff0000" flood-opacity="0.5" result="PINK">
      </feFlood>
      <feComposite in="PINK" in2="DILATED" operator="in" result="OUTLINE">
      </feComposite>
      <feMerge>
        <feMergeNode in="OUTLINE">
        </feMergeNode>
        <feMergeNode in="SourceGraphic">
        </feMergeNode>
      </feMerge>
      <feColorMatrix type="matrix" values="0   0   0   0   0                0   1   0   0   0                0   0   0   0   0                0   0   0   1   0 ">
      </feColorMatrix>
    </filter>
  </defs>
</svg>