<svg xmlns="http://www.w3.org/2000/svg" viewBox="0 0 131.94 151.89"><g id="Objects"><path d="M336,57.74a.29.29,0,0,0-.35-.15c-1.24.52-2.47,1-3.75,1.44A92.27,92.27,0,0,1,321,62c-4.19.93-8.44,1.61-12.61,2.65a78.36,78.36,0,0,0-10.6,3.3,55.16,55.16,0,0,0-7.56,3.51,32.73,32.73,0,0,0-7.38,6.21A79.81,79.81,0,0,0,277,84.39a36.17,36.17,0,0,0-2.67,4.26c1.28-4.83,3.06-9.7,6.33-13.56a.33.33,0,0,0-.39-.52A26.46,26.46,0,0,0,277.84,76a78.19,78.19,0,0,0-16.11,14.82,66.42,66.42,0,0,0-6.26,8.73,51,51,0,0,0-4.82,11.6,36,36,0,0,1,.42-7.18c.05-.42.11-.83.14-1.26s.09-.68-.21-.85a.48.48,0,0,0-.54.16,7,7,0,0,0-.48.6q-.49.64-1,1.32a33.66,33.66,0,0,0-2.72,4.54c-1.94,4-3.73,8-5.54,12.11s-3.51,8.19-5.29,12.28c-1.69,3.86-3.53,7.65-5.44,11.4a63.88,63.88,0,0,1-3.34,5.93c-.53.81-1.08,1.6-1.65,2.38l.24-.46a58.72,58.72,0,0,0,3.83-10.27c.86-2.24,1.71-4.5,2.66-6.71,1.11-2.49,2.11-5,3.07-7.59a95.85,95.85,0,0,1,6.86-13.94c1.71-2.9,3.52-5.74,5.19-8.68,1.55-2.76,2.79-5.68,4.22-8.51,1-2.11,2.12-4.21,3-6.39.27-.61.54-1.23.77-1.86a8.6,8.6,0,0,0,.29-1,.59.59,0,0,0-.06-.39.52.52,0,0,0-.77,0c-.64.49-1.27,1-1.89,1.52-2,1.72-4.14,3.35-6.31,4.89,4.65-5.65,9.6-11.41,11.83-18.51.16-.62.6-2.14.15-2.65-.31-.25-.65.1-.84.33a59.19,59.19,0,0,1-6.09,6.67,47.2,47.2,0,0,0,2.4-4.13c1.21-2.44,2.41-4.89,3.41-7.42,1.18-3.1,2.07-6.29,3-9.47.95-3.46,1.81-6.94,2.84-10.37q.15-.49.27-1a.61.61,0,0,0,0-.33.39.39,0,0,0-.46-.25,1.19,1.19,0,0,0-.47.25c-2.07,1.94-3.91,4.11-5.91,6.12-1.47,1.51-3,3-4.36,4.59a53.49,53.49,0,0,0-7.32,10.47,42.19,42.19,0,0,0-4,11c-1.09,5-1.46,10-2.15,15a23.15,23.15,0,0,1-1.36-6.79c0-.78-.08-1.59-.12-2.41,0-.39,0-1.22-.6-1a1.2,1.2,0,0,0-.39.5c-.19.37-.35.75-.51,1.13-.51,1.17-1.07,2.31-1.61,3.47a42.59,42.59,0,0,0-4.37,18.88c0,4.1.63,8.15.6,12.26a19.06,19.06,0,0,1-2.73-5.74c-.24-1-.42-2-.58-3,0-.29-.09-.58-.14-.87a1.12,1.12,0,0,0-.2-.62c-.36-.29-.62.2-.69.51a26.23,26.23,0,0,0-1.13,6.81,52.86,52.86,0,0,0,.35,7c.21,2.11.43,4.23.57,6.35-.1.77-.14,1.55-.21,2.32A84.37,84.37,0,0,1,224,143.63a48.15,48.15,0,0,1-2.17,8.84,31.62,31.62,0,0,1-2.39,5.92c-.16.27-.3.55-.44.82-2,3.51-3.78,7.1-5.77,10.6-1.2,2.06-2.36,4.14-3.42,6.28-.78,1.37-1.52,2.77-2.16,4.21-.54,1.22-1.08,2.45-1.57,3.69-.18.54-.71,1.6-.43,2.11.43.38.78-.13,1-.66l.17-.19a7,7,0,0,0,.43-.68l1-1.62c1.33-2.33,2.64-4.68,4-7,2-3.66,4.12-7.21,6.28-10.76l1.07-1.78,1.35-1.93a32.41,32.41,0,0,1,2.71-3.25,35.64,35.64,0,0,1,4.11-3.73,59.9,59.9,0,0,0,5.64-5.4c4.16-4.52,8.08-9.28,12.13-13.9a95,95,0,0,1,8.72-9.22c2.3-1.93,4.67-3.77,7.09-5.55,3.85-2.76,7.92-5.21,11.75-8a127.59,127.59,0,0,0,13-10.64.49.49,0,0,0,.19-.5c-.09-.26-.41-.22-.63-.16-.9.25-1.77.61-2.69.83s-1.84.38-2.76.55a41.17,41.17,0,0,1-7.59.72c1.44-.55,2.9-1.07,4.36-1.56,3.64-1.09,7.32-2,10.87-3.37,6.31-2.18,11.84-6.06,16.89-10.35,1.24-1,2.5-2.07,3.64-3.22.2-.24.51-.47.54-.81s-.49-.39-.78-.31a80.78,80.78,0,0,1-8.59,1.5,21.26,21.26,0,0,1-5.8,0c2.21-.67,4.46-1.25,6.72-1.72s4.24-.84,6.3-1.46a22,22,0,0,0,8.49-5c1.45-1.41,2.81-2.91,4.15-4.43s2.71-3.37,4.21-4.93A48.54,48.54,0,0,1,330,61.85a42,42,0,0,1,5.41-3.55c.14-.08.29-.12.43-.2A.3.3,0,0,0,336,57.74ZM225,154.18h0l0,0Zm4.85-21.81c1.57-5.11,3.07-10.24,4.69-15.34s3-10.42,4.65-15.61c1.78-6.13,3.21-12.36,5.09-18.46,1.34-4.32,2.83-8.58,4.54-12.76a56.44,56.44,0,0,1,5.53-10.87c-1.88,4.48-3.83,8.94-5.49,13.51a127.78,127.78,0,0,0-4.08,12.22c-2.82,9.15-4.53,18.6-7.24,27.79q-1.76,6.09-3.86,12.07c-1,2.86-2.17,5.71-3.14,8.59-2.18,6.36-4.19,12.78-6.67,19l-.11.12a.28.28,0,0,0-.22,0c.43-1.34.83-2.7,1.18-4.06C226.37,143.18,228.17,137.79,229.86,132.37Zm61-49.9c-2.35,1.62-4.7,3.24-6.94,5-3.71,3-7.34,6-10.92,9.14-2.1,1.87-4,4-5.95,6s-3.92,4-5.76,6.13c-2.47,2.74-5,5.44-7.34,8.28-2.06,2.44-4,5-5.82,7.62-1.39,1.84-2.78,3.69-4.08,5.6-1.55,2.2-3.15,4.37-4.69,6.58s-3.06,4.47-4.57,6.72a48,48,0,0,1-3,4.19,57.21,57.21,0,0,1-4.17,4.65c-.57.5-1.13,1-1.67,1.54h0c-.26,0-.28-.29-.21-.5,1.06-1.2,2.15-2.38,3.2-3.59a48.51,48.51,0,0,0,3.51-4.69c5.72-8.38,11.51-16.72,17.66-24.79,2.3-3,4.66-5.93,7.23-8.69,4.41-4.67,9-9.19,13.51-13.71a142.16,142.16,0,0,1,18.92-16.06,117.71,117.71,0,0,1,17.13-9.49C301.32,75.35,296.13,79,290.89,82.47Z" transform="translate(-204.03 -46.11)"/><path d="M295.88,185.18a6.36,6.36,0,0,1-.62.94c-2.56,2.66-6.33,4-9.9,4.75s-7.33.06-10.87-.74c3.51-2.9,7.45-6.3,8.23-11,.77-5.67-4.56-9.35-9.71-9.59-17.18-.58-32.69,8.74-47.23,16.81-5.51,3-11.67,6.91-18.22,5.37a2.93,2.93,0,0,1-2.14-1.82.69.69,0,0,0-.37-.68c-2-.41-.57,2.46.35,3,8.06,4.61,19.27-3.93,26.39-7.63,7.35-4,14.93-8.07,22.94-10.7,6.63-2,14.5-4.17,21.34-2.31,3.48,1,6.21,4.67,5.09,8.33-1.4,4.21-5,7.21-8.42,9.85-5.34-1.28-10.88-2.68-16.4-1.88-3,.54-6.56,1.62-8.08,4.55-2.38,4.79,3.58,5.73,7,5.61a31.26,31.26,0,0,0,17.76-6.77c5.81,1.53,11.54,2.09,17.21-.31,2.57-1.18,5.47-2.47,6.85-5.08A.7.7,0,0,0,295.88,185.18ZM255.1,196.6c-1.86-.14-5.15.11-5.95-2-.12-2.63,2.8-4.18,5-4.85,5.62-1.71,11.55-.29,17.11,1A29.08,29.08,0,0,1,255.1,196.6Z" transform="translate(-204.03 -46.11)"/></g></svg>