<svg xmlns="http://www.w3.org/2000/svg" viewBox="0 0 65 74.83">
  <defs>
    <style>
      .cls-1{fill:#fefefe;}
    </style>
  </defs>
  <g id="Objects">
    <path class="cls-1" d="M164,362.05a.15.15,0,0,0-.17-.08c-.61.26-1.22.48-1.85.71a46.79,46.79,0,0,1-5.33,1.49c-2.07.45-4.16.79-6.21,1.3a38.16,38.16,0,0,0-5.23,1.63,27.27,27.27,0,0,0-3.72,1.73,15.62,15.62,0,0,0-3.63,3.06,37.92,37.92,0,0,0-2.92,3.29,16.08,16.08,0,0,0-1.31,2.1,16.9,16.9,0,0,1,3.11-6.69.16.16,0,0,0-.19-.25c-.41.2-.79.46-1.18.7a38.72,38.72,0,0,0-7.93,7.3,32.57,32.57,0,0,0-3.09,4.31,25,25,0,0,0-2.37,5.71,17.53,17.53,0,0,1,.2-3.54c0-.2.06-.41.08-.62s0-.33-.11-.42a.24.24,0,0,0-.27.08,3.4,3.4,0,0,0-.23.3c-.16.21-.32.43-.47.65a14.91,14.91,0,0,0-1.34,2.24c-1,2-1.84,4-2.74,6s-1.73,4-2.6,6.05-1.74,3.77-2.68,5.62a31.93,31.93,0,0,1-1.64,2.91c-.26.4-.54.79-.82,1.18l.12-.23a29.32,29.32,0,0,0,1.89-5.06c.42-1.1.84-2.21,1.31-3.3s1-2.48,1.51-3.74a46.56,46.56,0,0,1,3.38-6.87c.84-1.43,1.73-2.83,2.55-4.27s1.38-2.8,2.08-4.2c.52-1,1-2.07,1.5-3.14.14-.31.27-.61.38-.92a4.19,4.19,0,0,0,.14-.47.25.25,0,0,0,0-.19c-.09-.14-.27-.09-.38,0l-.93.75c-1,.85-2,1.65-3.11,2.41,2.3-2.79,4.73-5.63,5.83-9.12.08-.31.3-1.06.08-1.31s-.32.05-.42.17a29,29,0,0,1-3,3.28,21.55,21.55,0,0,0,1.17-2c.6-1.2,1.19-2.4,1.68-3.65.58-1.53,1-3.1,1.48-4.67s.89-3.41,1.4-5.1c0-.17.1-.33.13-.49a.29.29,0,0,0,0-.16.19.19,0,0,0-.23-.13.59.59,0,0,0-.23.13c-1,.95-1.93,2-2.91,3-.72.75-1.45,1.49-2.15,2.26a27.17,27.17,0,0,0-3.61,5.16,21.19,21.19,0,0,0-1.94,5.39c-.54,2.44-.72,4.94-1.06,7.41a11.53,11.53,0,0,1-.67-3.35c0-.38,0-.78-.06-1.18,0-.2,0-.61-.29-.51a.47.47,0,0,0-.19.25c-.1.18-.18.37-.26.55-.25.58-.52,1.14-.79,1.71a22.13,22.13,0,0,0-1.71,5,21.61,21.61,0,0,0-.44,4.32c0,2,.31,4,.29,6a9.31,9.31,0,0,1-1.34-2.83c-.12-.48-.21-1-.29-1.47,0-.14,0-.28-.07-.43a.62.62,0,0,0-.09-.3c-.18-.15-.31.1-.35.25a13.11,13.11,0,0,0-.55,3.35,24.76,24.76,0,0,0,.17,3.45c.11,1,.21,2.08.28,3.13,0,.38-.07.76-.1,1.14a43.61,43.61,0,0,1-.69,5.58,24.9,24.9,0,0,1-1.07,4.35,16.08,16.08,0,0,1-1.18,2.92l-.22.41c-1,1.73-1.86,3.49-2.84,5.22-.59,1-1.16,2-1.69,3.09-.38.67-.74,1.36-1.06,2.07s-.53,1.21-.77,1.83c-.09.26-.36.78-.21,1s.38-.06.51-.32l.08-.1a3,3,0,0,0,.21-.33l.48-.8,2-3.46c1-1.81,2-3.55,3.1-5.3.17-.3.35-.59.52-.88l.67-.95a15.67,15.67,0,0,1,1.33-1.6,18.61,18.61,0,0,1,2-1.84,27.93,27.93,0,0,0,2.78-2.66c2.06-2.23,4-4.57,6-6.85a47.3,47.3,0,0,1,4.3-4.54c1.13-.95,2.3-1.86,3.49-2.73,1.9-1.36,3.9-2.57,5.79-3.95a67.16,67.16,0,0,0,6.41-5.24.27.27,0,0,0,.09-.25c0-.13-.2-.11-.31-.08-.44.12-.87.3-1.32.41s-.91.19-1.37.27a19.5,19.5,0,0,1-3.74.35c.72-.27,1.43-.52,2.16-.77,1.78-.53,3.6-1,5.35-1.66a26.42,26.42,0,0,0,8.32-5.09c.61-.52,1.23-1,1.79-1.59.1-.12.25-.23.27-.4s-.24-.19-.39-.15a37.76,37.76,0,0,1-4.23.73,10.08,10.08,0,0,1-2.85,0c1.09-.33,2.19-.61,3.31-.84s2.08-.42,3.1-.73a10.72,10.72,0,0,0,4.18-2.45c.72-.7,1.39-1.44,2.05-2.19s1.33-1.66,2.07-2.42a23.28,23.28,0,0,1,3.16-2.79,20.27,20.27,0,0,1,2.66-1.74l.21-.11A.14.14,0,0,0,164,362.05Zm-54.65,47.51Zm2.39-10.74c.77-2.52,1.51-5.05,2.3-7.56s1.5-5.14,2.3-7.69c.88-3,1.58-6.09,2.5-9.1.66-2.12,1.4-4.22,2.24-6.28a28.43,28.43,0,0,1,2.72-5.36c-.92,2.21-1.88,4.4-2.7,6.66a60.7,60.7,0,0,0-2,6c-1.39,4.51-2.23,9.16-3.57,13.69-.57,2-1.21,4-1.9,5.94-.49,1.41-1.07,2.82-1.55,4.24-1.07,3.13-2.06,6.29-3.28,9.36l-.06.06a.12.12,0,0,0-.1,0c.21-.66.41-1.33.58-2C110,404.14,110.89,401.49,111.73,398.82Zm30.06-24.59c-1.16.8-2.31,1.6-3.42,2.47-1.83,1.45-3.61,3-5.38,4.5-1,.92-2,1.95-2.93,2.94s-1.93,2-2.84,3c-1.21,1.35-2.45,2.68-3.61,4.07-1,1.21-2,2.48-2.87,3.76-.69.91-1.37,1.82-2,2.76s-1.55,2.15-2.31,3.24-1.51,2.2-2.25,3.31a23.62,23.62,0,0,1-1.49,2.07,29.63,29.63,0,0,1-2.06,2.28l-.82.76h0c-.13,0-.14-.14-.1-.25.52-.59,1.06-1.17,1.57-1.76a22.9,22.9,0,0,0,1.73-2.32c2.82-4.12,5.67-8.23,8.7-12.21,1.13-1.47,2.3-2.92,3.57-4.28,2.16-2.3,4.41-4.52,6.65-6.76a70.28,70.28,0,0,1,9.32-7.9,57.38,57.38,0,0,1,8.44-4.68C146.93,370.72,144.37,372.51,141.79,374.23Z"
    transform="translate(-99 -356.32)" />
    <path class="cls-1" d="M144.25,424.83a3.37,3.37,0,0,1-.31.46,9.19,9.19,0,0,1-4.88,2.34,12.76,12.76,0,0,1-5.35-.36c1.73-1.43,3.67-3.1,4.06-5.43.37-2.79-2.25-4.6-4.79-4.72-8.46-.28-16.1,4.3-23.26,8.28-2.72,1.5-5.76,3.41-9,2.65a1.43,1.43,0,0,1-1-.9.37.37,0,0,0-.18-.34c-1-.2-.29,1.22.17,1.46,4,2.27,9.49-1.94,13-3.76a69.54,69.54,0,0,1,11.3-5.27c3.27-1,7.14-2.05,10.51-1.14a3.45,3.45,0,0,1,2.51,4.11c-.69,2.07-2.48,3.55-4.15,4.85-2.63-.63-5.36-1.32-8.08-.92-1.49.26-3.23.79-4,2.23-1.17,2.37,1.77,2.83,3.47,2.77a15.4,15.4,0,0,0,8.74-3.33c2.86.75,5.69,1,8.48-.16,1.27-.58,2.7-1.21,3.38-2.5A.34.34,0,0,0,144.25,424.83Zm-20.09,5.62c-.92-.06-2.54.06-2.93-1-.06-1.3,1.38-2.06,2.46-2.39,2.77-.84,5.69-.14,8.43.5A14.21,14.21,0,0,1,124.16,430.45Z"
    transform="translate(-99 -356.32)" />
  </g>
</svg>
