<svg class="animated" id="freepik_stories-font" xmlns="http://www.w3.org/2000/svg"
viewBox="0 0 500 500" version="1.1" xmlns:xlink="http://www.w3.org/1999/xlink"
xmlns:svgjs="http://svgjs.com/svgjs">
  <style>
    svg#freepik_stories-font:not(.animated) .animable {opacity: 0;}svg#freepik_stories-font.animated
    #freepik--fonts-1--inject-358 {animation: 1.5s Infinite linear floating;animation-delay:
    0s;}svg#freepik_stories-font.animated #freepik--tool-2--inject-358 {animation:
    1.5s Infinite linear floating;animation-delay: 0s;}svg#freepik_stories-font.animated
    #freepik--tool-1--inject-358 {animation: 1.5s Infinite linear floating;animation-delay:
    0s;}svg#freepik_stories-font.animated #freepik--Window--inject-358 {animation:
    1.5s Infinite linear floating;animation-delay: 0s;}svg#freepik_stories-font.animated
    #freepik--Character--inject-358 {animation: 1.5s Infinite linear floating;animation-delay:
    0s;} @keyframes floating { 0% { opacity: 1; transform: translateY(0px);
    } 50% { transform: translateY(-10px); } 100% { opacity: 1; transform: translateY(0px);
    } }
  </style>
  <g id="freepik--background-simple--inject-358" style="transform-origin: 247.551px 262.154px 0px;"
  class="animable">
    <path d="M438.09,239.07c-16-45.17-32.1-95.13-67.27-126.45A102.57,102.57,0,0,0,336.49,92c-77.07-26.71-137,.87-168,41.21s-41.82,86-82.22,109.66-62.56,57.43-49,112.53S98,461.64,177.13,436.15s74.16-59.47,143.27-51.26,121.4,8.26,136.43-32.14c10.74-28.85,2.39-58.73-8.49-86C444.81,257.86,441.45,248.58,438.09,239.07Z"
    style="fill: rgb(246, 236, 201); transform-origin: 247.551px 262.154px 0px;" id="el493d4yxt194"
    class="animable">
    </path>
    <g id="els48e07cw5wl">
      <path d="M438.09,239.07c-16-45.17-32.1-95.13-67.27-126.45A102.57,102.57,0,0,0,336.49,92c-77.07-26.71-137,.87-168,41.21s-41.82,86-82.22,109.66-62.56,57.43-49,112.53S98,461.64,177.13,436.15s74.16-59.47,143.27-51.26,121.4,8.26,136.43-32.14c10.74-28.85,2.39-58.73-8.49-86C444.81,257.86,441.45,248.58,438.09,239.07Z"
      style="fill: rgb(221,212,181); opacity: 0.7; transform-origin: 247.551px 262.154px 0px;"
      class="animable" id="elrhtvq5ffou">
      </path>
    </g>
  </g>
  <g id="freepik--Floor--inject-358" style="transform-origin: 245.295px 455.33px 0px;"
  class="animable">
    <line x1="455.14" y1="455.33" x2="464.59" y2="455.33" style="fill: none; stroke: rgb(38, 50, 56); stroke-miterlimit: 10; transform-origin: 459.865px 455.33px 0px;"
    id="elsw33lt90f3r" class="animable">
    </line>
    <line x1="138.48" y1="455.33" x2="447.58" y2="455.33" style="fill: none; stroke: rgb(38, 50, 56); stroke-miterlimit: 10; transform-origin: 293.03px 455.33px 0px;"
    id="el21k51jgivf3h" class="animable">
    </line>
    <line x1="26" y1="455.33" x2="128.08" y2="455.33" style="fill: none; stroke: rgb(38, 50, 56); stroke-miterlimit: 10; transform-origin: 77.04px 455.33px 0px;"
    id="elzfi6f7cw1s" class="animable">
    </line>
  </g>
  <g id="freepik--fonts-1--inject-358" style="transform-origin: 153.505px 137.16px 0px;"
  class="animable">
    <path d="M71.91,164.24,68.15,184H58.1L76.8,86.05H92.56L111.26,184H100.38l-3.77-19.72Zm1.4-9.37H95.08l-11-56.51Z"
    style="fill: rgb(38, 50, 56); transform-origin: 84.68px 135.025px 0px;"
    id="elgek9qdxtf2d" class="animable">
    </path>
    <path d="M162.89,109.69v8.39H152.57v-9c0-8.81-3.49-14.12-11.44-14.12s-11.45,5.31-11.45,14.12v51.76c0,8.81,3.63,14.12,11.45,14.12s11.44-5.31,11.44-14.12V141.3h-10v-9.79h20.37v28.82c0,14.82-7,24.61-22,24.61s-21.91-9.79-21.91-24.61V109.69c0-14.82,7-24.62,21.91-24.62S162.89,94.87,162.89,109.69Z"
    style="fill: rgb(38, 50, 56); transform-origin: 140.985px 135.005px 0px;"
    id="elm52nbfml09a" class="animable">
    </path>
    <rect x="53.56" y="65.17" width="116.16" height="144.91" style="fill: none; stroke: rgb(38, 50, 56); stroke-miterlimit: 10; transform-origin: 111.64px 137.625px 0px;"
    id="elgm259if9u0b" class="animable">
    </rect>
    <line x1="53.56" y1="184.67" x2="170.18" y2="184.67" style="fill: none; stroke: rgb(38, 50, 56); stroke-miterlimit: 10; transform-origin: 111.87px 184.67px 0px;"
    id="elrynx71e6jd" class="animable">
    </line>
    <rect x="50.79" y="62.4" width="5.53" height="5.53" style="fill: rgb(251,247,233); stroke: rgb(38, 50, 56); stroke-miterlimit: 10; transform-origin: 53.555px 65.165px 0px;"
    id="elmapm1ai70x" class="animable">
    </rect>
    <rect x="166.49" y="62.4" width="5.53" height="5.53" style="fill: rgb(251,247,233); stroke: rgb(38, 50, 56); stroke-miterlimit: 10; transform-origin: 169.255px 65.165px 0px;"
    id="elgv5afztkfmn" class="animable">
    </rect>
    <rect x="50.79" y="135.23" width="5.53" height="5.53" style="fill: rgb(251,247,233); stroke: rgb(38, 50, 56); stroke-miterlimit: 10; transform-origin: 53.555px 137.995px 0px;"
    id="el9jg1el2j47s" class="animable">
    </rect>
    <rect x="166.49" y="135.23" width="5.53" height="5.53" style="fill: rgb(251,247,233); stroke: rgb(38, 50, 56); stroke-miterlimit: 10; transform-origin: 169.255px 137.995px 0px;"
    id="elzkxxyn6evfi" class="animable">
    </rect>
    <rect x="50.79" y="206.39" width="5.53" height="5.53" style="fill: rgb(251,247,233); stroke: rgb(38, 50, 56); stroke-miterlimit: 10; transform-origin: 53.555px 209.155px 0px;"
    id="eltn0au5mrb8b" class="animable">
    </rect>
    <rect x="166.49" y="206.39" width="5.53" height="5.53" style="fill: rgb(251,247,233); stroke: rgb(38, 50, 56); stroke-miterlimit: 10; transform-origin: 169.255px 209.155px 0px;"
    id="elhagboac9vj6" class="animable">
    </rect>
    <path d="M55.4,184.67a1.85,1.85,0,1,0-1.84,1.85A1.84,1.84,0,0,0,55.4,184.67Z"
    style="fill: rgb(38, 50, 56); transform-origin: 53.55px 184.67px 0px;"
    id="elz36iy2rghdq" class="animable">
    </path>
    <line x1="169.25" y1="138" x2="185.39" y2="138" style="fill: none; stroke: rgb(38, 50, 56); stroke-miterlimit: 10; transform-origin: 177.32px 138px 0px;"
    id="elm2a6gctvxp" class="animable">
    </line>
    <circle cx="185.39" cy="138" r="2.3" style="fill: rgb(251,247,233); stroke: rgb(38, 50, 56); stroke-miterlimit: 10; transform-origin: 185.39px 138px 0px;"
    id="el8i9a9fl51l3" class="animable">
    </circle>
    <path d="M195.24,178.16,191.57,193h-1.79l15.13-62.91h2.78L223.18,193h-2l-3.67-14.81Zm.36-1.8h21.58l-10.92-44Z"
    style="fill: rgb(38, 50, 56); transform-origin: 206.48px 161.545px 0px;"
    id="el9xdctuo0sbj" class="animable">
    </path>
    <path d="M256.22,145.58v4.13h-2v-4.22c0-7.63-2.87-14-11.1-14s-11.2,6.37-11.2,14v32.13c0,7.63,2.87,13.91,11.2,13.91s11.1-6.28,11.1-13.91V163.35h-9.76v-1.79h11.73v16c0,8.71-3.58,15.89-13.16,15.89S230,186.24,230,177.53V145.58c0-8.7,3.59-15.88,13.08-15.88S256.22,136.88,256.22,145.58Z"
    style="fill: rgb(38, 50, 56); transform-origin: 243.11px 161.575px 0px;"
    id="el2av9pmirkkx" class="animable">
    </path>
  </g>
  <g id="freepik--Window--inject-358" style="transform-origin: 190.88px 206.94px 0px;"
  class="animable">
    <path d="M57.82,52.52H323.91A4.48,4.48,0,0,1,328.38,57V361.36a0,0,0,0,1,0,0h-275a0,0,0,0,1,0,0V57a4.48,4.48,0,0,1,4.48-4.48Z"
    style="fill: none; stroke: rgb(38, 50, 56); stroke-miterlimit: 10; transform-origin: 190.88px 206.94px 0px;"
    id="el0n9c6enowzkb" class="animable">
    </path>
    <path d="M57.82,52.52H323.91A4.48,4.48,0,0,1,328.38,57v1.79a0,0,0,0,1,0,0h-275a0,0,0,0,1,0,0V57A4.48,4.48,0,0,1,57.82,52.52Z"
    style="fill: rgb(38, 50, 56); stroke: rgb(38, 50, 56); stroke-miterlimit: 10; transform-origin: 190.88px 55.655px 0px;"
    id="elph4a7uq2jl" class="animable">
    </path>
    <circle cx="309.96" cy="56.11" r="1.6" style="fill: rgb(112, 112, 112); transform-origin: 309.96px 56.11px 0px;"
    id="elplpoj95vn6r" class="animable">
    </circle>
    <circle cx="317.01" cy="56.11" r="1.6" style="fill: rgb(112, 112, 112); transform-origin: 317.01px 56.11px 0px;"
    id="el795tizqnfvc" class="animable">
    </circle>
    <circle cx="324.06" cy="56.11" r="1.6" style="fill: rgb(112, 112, 112); transform-origin: 324.06px 56.11px 0px;"
    id="elowxf6s6zde" class="animable">
    </circle>
  </g>
  <g id="freepik--Character--inject-358" style="transform-origin: 396.755px 284.35px 0px;"
  class="animable">
    <path d="M346,295.5s-1.06,12.2-1.06,16.45,3.18,6.37,4.77,9,8.23,2.13,9,1.86,2.65-9.55,2.65-14.06V295Z"
    style="fill: rgb(251,247,233); stroke: rgb(38, 50, 56); stroke-linecap: round; stroke-linejoin: round; transform-origin: 353.15px 309.017px 0px;"
    id="eligoack543l" class="animable">
    </path>
    <path d="M347.58,307.7s.53,6.11.8,6.9,4.24,5.31,5,6.37,5.31,1.86,5.31,1.86,4-1.59,3.45-3.18-6.37-3.19-6.37-3.19,1.85-4.78.53-7.16L355,306.91"
    style="fill: rgb(251,247,233); stroke: rgb(38, 50, 56); stroke-linecap: round; stroke-linejoin: round; transform-origin: 354.886px 314.87px 0px;"
    id="el682jwr3krvp" class="animable">
    </path>
    <path d="M348.56,188.1s-3.07,24.81-3.07,38.75,2.13,28.36,1.66,30-4,31.43-4,35v5s3.78,3.31,6.38,4a10.61,10.61,0,0,0,5.67-.47V282.86c0-6.15,1.18-32.61,1.18-32.61s-3.78-33.32-4.25-39.94-.71-19.14-.71-21S348.56,188.1,348.56,188.1Z"
    style="fill: #DDD4B5; stroke: rgb(38, 50, 56); stroke-linecap: round; stroke-linejoin: round; transform-origin: 349.765px 244.514px 0px;"
    id="eliu78qvudxue" class="animable">
    </path>
    <path d="M377.39,438.82a29.58,29.58,0,0,1-6.61,8.75c-4,3.31-11.35,8.74-13,10.16s-1.42,2.84,4.25,4.49,14,1.65,18.2,0,8.27-1.42,10.4-2.36,3.31-1.89,3.54-4.26-1.89-17-1.89-17Z"
    style="fill: #DDD4B5; stroke: rgb(38, 50, 56); stroke-linecap: round; stroke-linejoin: round; transform-origin: 375.538px 451.029px 0px;"
    id="elgfy9nyyadw" class="animable">
    </path>
    <path d="M394.14,453.93A59.7,59.7,0,0,0,385.9,457c-6.85,3.07-8,4-16.54,4a16.7,16.7,0,0,1-11.06-3.74l-.52.43c-1.65,1.42-1.42,2.84,4.25,4.49s14,1.65,18.2,0,8.27-1.42,10.4-2.36,3.31-1.89,3.54-4.26A10.89,10.89,0,0,0,394.14,453.93Z"
    style="fill: rgb(251,247,233); stroke: rgb(38, 50, 56); stroke-linecap: round; stroke-linejoin: round; transform-origin: 375.538px 458.674px 0px;"
    id="elxh9olkp855i" class="animable">
    </path>
    <path d="M405,441.42s-4.25,13.24-6.14,16.55-6.15,6.61-5.91,9,4.49,3.07,11.82,3.07,12.28-1.42,14.41-5.2,2.36-4.73,3.55-7.09-.71-16.54-.71-16.54S407.17,441.66,405,441.42Z"
    style="fill: #DDD4B5; stroke: rgb(38, 50, 56); stroke-linecap: round; stroke-linejoin: round; transform-origin: 408.031px 455.625px 0px;"
    id="elhvzccoziog" class="animable">
    </path>
    <path d="M419.22,464.82c2.13-3.78,2.36-4.73,3.55-7.09a13.29,13.29,0,0,0,.36-4.68c-.87,1.54-1.86,3.37-3,5.39-2.84,5.2-4.49,7.56-14.18,8-6.9.34-10.91-.52-12.65-1A2.87,2.87,0,0,0,393,467c.24,2.36,4.49,3.07,11.82,3.07S417.09,468.6,419.22,464.82Z"
    style="fill: rgb(251,247,233); stroke: rgb(38, 50, 56); stroke-linecap: round; stroke-linejoin: round; transform-origin: 408.093px 461.56px 0px;"
    id="elfm86gddyt8f" class="animable">
    </path>
    <path d="M355.89,277.19s-1.18,23.39-.24,41.35,10.87,52,10.87,52,4.73,28.83,6.15,37.1,4.49,26.94,4.49,26.94l16.07-.94V406.45c0-5-.71-36.16-.71-36.16s8.27,42.54,9,47.27,2.36,18.67,2.36,18.67,5.2,1.65,8.27,1.65,10.64-2.13,10.64-2.13,2.83-28.35,2.6-36.86-4-21.27-5.2-25.05S415.44,359,415.68,358s2.83-32.14,2.83-38.52v-17l-5-25.05-2.13-3.78s-27.65,4.73-40.17,1.42-15.83-4.25-15.83-4.25Z"
    style="fill: rgb(38, 50, 56); stroke: rgb(38, 50, 56); stroke-linecap: round; stroke-linejoin: round; transform-origin: 390.345px 354.35px 0px;"
    id="el1fnpqo04c0a" class="animable">
    </path>
    <path d="M372.9,308.85l8.75,6.62s5.2,35.68,8.27,46.79" style="fill: none; stroke: rgb(148, 148, 148); stroke-linecap: round; stroke-linejoin: round; transform-origin: 381.41px 335.555px 0px;"
    id="elibxab1tgkd" class="animable">
    </path>
    <path d="M374.56,427.72s8.51-.24,14.41-.24,6.86.24,6.86,1.66.71,9.92,0,10.87-7.57.94-11.11.94-8.27.71-8.74-1.42-.48-4.72-1.19-6.61S373.14,429.37,374.56,427.72Z"
    style="fill: rgb(112, 112, 112); stroke: rgb(38, 50, 56); stroke-linecap: round; stroke-linejoin: round; transform-origin: 384.984px 434.272px 0px;"
    id="elcyg8b03vfu" class="animable">
    </path>
    <path d="M401.73,429.37a9.55,9.55,0,0,0-.47,3.55,71.37,71.37,0,0,1,.71,8c0,2.13-.47,1.66,4.49,3.31s15.6,0,16.78-1.42,1.18-9,1.18-10.63-.47-2.37-2.13-1.89-10.16,1.89-13.23,1.18a31.49,31.49,0,0,1-5.2-1.66S402.21,428,401.73,429.37Z"
    style="fill: rgb(112, 112, 112); stroke: rgb(38, 50, 56); stroke-linecap: round; stroke-linejoin: round; transform-origin: 412.832px 436.888px 0px;"
    id="el82o1k6jli1t" class="animable">
    </path>
    <path d="M404.1,173.92l-9-4.73-22.45,6.15s-6.38,11.1-7.56,20.55-2.84,57.19-2.84,65.94-.47,15.36-.47,15.36,5.91,4.25,16.3,4.72a115.56,115.56,0,0,0,19.38-.47c2.36-.24,10.16-4.73,10.16-4.73s-1.42-44.9-1.42-51.28,4.49-36.62,5.44-40.88S404.1,173.92,404.1,173.92Z"
    style="fill: rgb(112, 112, 112); stroke: rgb(38, 50, 56); stroke-linecap: round; stroke-linejoin: round; transform-origin: 386.747px 225.653px 0px;"
    id="elinlabkswexs" class="animable">
    </path>
    <path d="M390.53,178.13c1.65,4.53-1.37,9.79-6.75,11.75s-11.07-.12-12.73-4.65,1.37-9.79,6.75-11.75S388.88,173.6,390.53,178.13Z"
    style="fill: rgb(251,247,233); stroke: rgb(38, 50, 56); stroke-linecap: round; stroke-linejoin: round; transform-origin: 380.788px 181.68px 0px;"
    id="elz3bn14edzg" class="animable">
    </path>
    <path d="M377.87,181.24s8.74,9.69,9.45,9.22,13.47-18,13.47-18l-3.31-5.44Z"
    style="fill: rgb(251,247,233); stroke: rgb(38, 50, 56); stroke-linecap: round; stroke-linejoin: round; transform-origin: 389.33px 178.748px 0px;"
    id="elnb11cxfkag" class="animable">
    </path>
    <path d="M377.16,170.61a27,27,0,0,1-2.6,4.49c-1.18,1.42-4.26,12.29-4.26,12.29l7.57-6.15s.47-6.85.71-8.5A2,2,0,0,0,377.16,170.61Z"
    style="fill: rgb(251,247,233); stroke: rgb(38, 50, 56); stroke-linecap: round; stroke-linejoin: round; transform-origin: 374.446px 179px 0px;"
    id="elno2qvk8ev5d" class="animable">
    </path>
    <path d="M375.74,158.32a26.64,26.64,0,0,1,1.42,5c0,1.18-1,18.67.71,18s18.9-12.29,19.61-14.18-.47-13.23,0-16.07,1.42-7.08,1.42-7.08-6.85,7.08-12.29,10.16A43.6,43.6,0,0,1,375.74,158.32Z"
    style="fill: rgb(251,247,233); stroke: rgb(38, 50, 56); stroke-linecap: round; stroke-linejoin: round; transform-origin: 387.32px 162.664px 0px;"
    id="elxnxqbg10h" class="animable">
    </path>
    <path d="M377.16,163.28c0,.58-.23,5.08-.27,9.43l15.6-15.94L376,158.89A21.42,21.42,0,0,1,377.16,163.28Z"
    style="fill: rgb(38, 50, 56); stroke: rgb(38, 50, 56); stroke-linecap: round; stroke-linejoin: round; transform-origin: 384.245px 164.74px 0px;"
    id="elf0nb2qxqpsu" class="animable">
    </path>
    <path d="M399.14,169.9s-8,30.48-8.51,43.48-1.18,21,.71,33.56,5.43,21.5,10.39,29.06,11.58,23.16,12.06,26,4.72,7.8,8.5,10.63,5.91,5.44,6.15,3.78-3.55-26.46-7.09-41.59a106.72,106.72,0,0,1-3.07-26.23L423,231.34s7.33,23.16,9.22,24.58,13.94,2.83,16.07-1.66.47-11.81-1-16.54-8.27-35.92-9.45-42.06-1.42-10.16-2.6-12.29-15.83-6.14-20.32-7.8S399.14,169.9,399.14,169.9Z"
    style="fill: #DDD4B5; stroke: rgb(38, 50, 56); stroke-linecap: round; stroke-linejoin: round; transform-origin: 419.695px 243.414px 0px;"
    id="elg2dmccojgsu" class="animable">
    </path>
    <path d="M399.37,271.51s3.55,2.84,10.64,7.8S424.89,298,424.89,298s-3.78,2.6-5.43,3.78-4.26,3.08-4.26,3.08-2.12-2.13-4.25-7.57S399.37,271.51,399.37,271.51Z"
    style="fill: #DDD4B5; stroke: rgb(38, 50, 56); stroke-linecap: round; stroke-linejoin: round; transform-origin: 412.13px 288.185px 0px;"
    id="el2k4bau2hdnm" class="animable">
    </path>
    <path d="M376.45,171.55a120.42,120.42,0,0,0-6.85,19.85c-2.13,9.46-4.26,27.65-4.49,39s-1.89,58.84-2.13,62.86-3.31,6.14-7.8,7.09a31.1,31.1,0,0,1-9.92,0s5-33.8,5.19-39.23.24-13.47.24-18-2.36-33.56-2.6-39-.23-14.89.47-16.07,17.73-9.69,18.67-10.4S373.85,173.44,376.45,171.55Z"
    style="fill: #DDD4B5; stroke: rgb(38, 50, 56); stroke-linecap: round; stroke-linejoin: round; transform-origin: 360.855px 236.149px 0px;"
    id="el6ht8d75vom5" class="animable">
    </path>
    <path d="M421.32,195.74c-1.57,2.59-3,5.52-3.28,7.95-.71,5.91,4.49,26.23,4.49,26.23"
    style="fill: none; stroke: rgb(38, 50, 56); stroke-linecap: round; stroke-linejoin: round; transform-origin: 420.252px 212.83px 0px;"
    id="eld1a7y6mlkjr" class="animable">
    </path>
    <path d="M426.07,189s-.8,1-1.9,2.46" style="fill: none; stroke: rgb(38, 50, 56); stroke-linecap: round; stroke-linejoin: round; transform-origin: 425.12px 190.23px 0px;"
    id="el70g3jkqooo5" class="animable">
    </path>
    <path d="M414,280.26a35.84,35.84,0,0,1-7.09,2.6c-3.3.71-9.21,2.6-9.21,2.6s-1.89,4-3.78,5.2-3.55,2.36-2.6,3.07a3.75,3.75,0,0,0,3.54.94,21.89,21.89,0,0,0,4-2.36l10.16,6.85a6.33,6.33,0,0,0,3.31-3.07c1.18-2.36,3.54-6.14,3.54-6.14l3.08-3.31Z"
    style="fill: rgb(251,247,233); stroke: rgb(38, 50, 56); stroke-linecap: round; stroke-linejoin: round; transform-origin: 404.997px 289.71px 0px;"
    id="elhwkzewpx1rr" class="animable">
    </path>
    <path d="M432.22,247.41l-19.85,32.38s3.78,6.61,6.62,9.45l3.78,3.78s17-20.09,21.26-27.89,7.09-11.1,6.15-15.83a26.15,26.15,0,0,0-2.13-6.85"
    style="fill: #DDD4B5; stroke: rgb(38, 50, 56); stroke-linecap: round; stroke-linejoin: round; transform-origin: 431.365px 267.735px 0px;"
    id="elmoye18yo0n" class="animable">
    </path>
    <path d="M395.59,250.48c-.24,4.26-.24,6.62-.24,6.62" style="fill: none; stroke: rgb(38, 50, 56); stroke-linecap: round; stroke-linejoin: round; transform-origin: 395.47px 253.79px 0px;"
    id="el2rw1rh8vmzm" class="animable">
    </path>
    <path d="M406.29,181.86c.07,8,.17,19.47.17,19.47l-8.74,4,5.2,9.21s-4.33,19.33-6.34,29.81"
    style="fill: none; stroke: rgb(38, 50, 56); stroke-linecap: round; stroke-linejoin: round; transform-origin: 401.52px 213.105px 0px;"
    id="elur09qd08mdo" class="animable">
    </path>
    <path d="M406.22,174.39c0,.18,0,2.07,0,4.77" style="fill: none; stroke: rgb(38, 50, 56); stroke-linecap: round; stroke-linejoin: round; transform-origin: 406.22px 176.775px 0px;"
    id="el1eiwws8gaxd" class="animable">
    </path>
    <path d="M360.66,241.24c-1.94-11.45-5.24-30.22-5.24-30.22l7.8-8.27-5.44-4.26s1.65-3.3,3.07-5.9,7.56-13.71,7.56-13.71"
    style="fill: none; stroke: rgb(38, 50, 56); stroke-linecap: round; stroke-linejoin: round; transform-origin: 361.915px 210.06px 0px;"
    id="el8wjbleoqf5d" class="animable">
    </path>
    <path d="M361.8,248.12c-.15-1-.37-2.3-.63-3.88" style="fill: none; stroke: rgb(38, 50, 56); stroke-linecap: round; stroke-linejoin: round; transform-origin: 361.485px 246.18px 0px;"
    id="elfkvcrq2iyou" class="animable">
    </path>
    <path d="M368,130.58c-.74-.05-10,.58-10.44-6.88a8.72,8.72,0,0,1,6.06-9.26s-5.77-6.32,1.65-9.79,16.2-1.65,16.2-1.65-.85-5.75,6-4.06,11.5,9.43,11.7,10.19,9.65,3.86,12.79,8.77,2.22,11.29-.29,15.58a114.46,114.46,0,0,1-7.91,10.87,6.2,6.2,0,0,1-6.24.82c-3.62-1.48-6-2.63-5.82-5.58s-.76-11-1.68-12-3.12-1.45-7.64-.51S368,130.58,368,130.58Z"
    style="fill: rgb(38, 50, 56); stroke: rgb(38, 50, 56); stroke-linecap: round; stroke-linejoin: round; transform-origin: 385.733px 122.146px 0px;"
    id="el1ffh9eejepc" class="animable">
    </path>
    <path d="M367.87,128.35s-.46,6.9-1.08,8.84a195.23,195.23,0,0,0-3.35,20.58c-.3,4.44,4.42,8,6.88,8.13s6.58-2,10.34-2.78,13.91-4.27,15.55-6.64,2.18-3.07,2.18-3.07,7.78-1.47,8.94-7.83-3-7.13-6.06-5.6a23.75,23.75,0,0,0-4.65,2.91s-2.22-.15-1.86-1.86a21.89,21.89,0,0,0,.71-3.17c.08-1.23-.61-2-1.42-4.8s-1.31-2.56-.16-5,3.42-6.71,3.42-6.71S376,122.2,367.87,128.35Z"
    style="fill: rgb(251,247,233); stroke: rgb(38, 50, 56); stroke-linecap: round; stroke-linejoin: round; transform-origin: 385.478px 143.628px 0px;"
    id="elz1sezzw7tt8" class="animable">
    </path>
    <path d="M378.22,130s3.64-.48,6.06,1.12" style="fill: none; stroke: rgb(38, 50, 56); stroke-linecap: round; stroke-linejoin: round; transform-origin: 381.25px 130.526px 0px;"
    id="eltyn8oiimajo" class="animable">
    </path>
    <path d="M371.88,129.57a4.66,4.66,0,0,0-3.83-.14" style="fill: none; stroke: rgb(38, 50, 56); stroke-linecap: round; stroke-linejoin: round; transform-origin: 369.965px 129.327px 0px;"
    id="elw2edu62lxo" class="animable">
    </path>
    <path d="M369.33,151s3.11,1.69,7.27-1.25" style="fill: none; stroke: rgb(38, 50, 56); stroke-linecap: round; stroke-linejoin: round; transform-origin: 372.965px 150.617px 0px;"
    id="el5bskf5ywllj" class="animable">
    </path>
    <path d="M381.54,135a1.48,1.48,0,1,1-1.38-1.58A1.47,1.47,0,0,1,381.54,135Z"
    style="fill: rgb(38, 50, 56); transform-origin: 380.064px 134.897px 0px;"
    id="elh7r17eith7b" class="animable">
    </path>
    <path d="M370.75,133.49a1.24,1.24,0,1,1-1.15-1.31A1.24,1.24,0,0,1,370.75,133.49Z"
    style="fill: rgb(38, 50, 56); transform-origin: 369.512px 133.417px 0px;"
    id="elnw26q6eakhp" class="animable">
    </path>
    <path d="M374.56,132s-1.59,5.34,1,7.5,8.81,1.57,10.4-.06,2.63-6,2.63-6S380.84,130.7,374.56,132Z"
    style="fill: none; stroke: rgb(38, 50, 56); stroke-linecap: round; stroke-linejoin: round; transform-origin: 381.334px 136.276px 0px;"
    id="elsns3ib2ixgp" class="animable">
    </path>
    <path d="M371.65,131.82s.57,5.48-1.6,7.32-6.74.54-7.74-1.26-1.26-6.27-1.26-6.27S367.13,129.78,371.65,131.82Z"
    style="fill: none; stroke: rgb(38, 50, 56); stroke-linecap: round; stroke-linejoin: round; transform-origin: 366.384px 135.444px 0px;"
    id="elwh7s3thdywp" class="animable">
    </path>
    <path d="M371.65,131.82s.76-.69,2.91.19" style="fill: none; stroke: rgb(38, 50, 56); stroke-linecap: round; stroke-linejoin: round; transform-origin: 373.105px 131.786px 0px;"
    id="elqwn3ebmm2bj" class="animable">
    </path>
    <line x1="388.55" y1="133.8" x2="399.27" y2="140.64" style="fill: none; stroke: rgb(38, 50, 56); stroke-linecap: round; stroke-linejoin: round; transform-origin: 393.91px 137.22px 0px;"
    id="elrdmojsdiqld" class="animable">
    </line>
    <path d="M372.8,133.83s-9.78,7.81-9,10.59,9,2.58,9,2.58" style="fill: rgb(251,247,233); stroke: rgb(38, 50, 56); stroke-linecap: round; stroke-linejoin: round; transform-origin: 368.278px 140.417px 0px;"
    id="elhmv087jtfvl" class="animable">
    </path>
  </g>
  <defs>
    <filter id="active" height="200%">
      <feMorphology in="SourceAlpha" result="DILATED" operator="dilate" radius="2">
      </feMorphology>
      <feFlood flood-color="#32DFEC" flood-opacity="1" result="PINK">
      </feFlood>
      <feComposite in="PINK" in2="DILATED" operator="in" result="OUTLINE">
      </feComposite>
      <feMerge>
        <feMergeNode in="OUTLINE">
        </feMergeNode>
        <feMergeNode in="SourceGraphic">
        </feMergeNode>
      </feMerge>
    </filter>
    <filter id="hover" height="200%">
      <feMorphology in="SourceAlpha" result="DILATED" operator="dilate" radius="2">
      </feMorphology>
      <feFlood flood-color="#ff0000" flood-opacity="0.5" result="PINK">
      </feFlood>
      <feComposite in="PINK" in2="DILATED" operator="in" result="OUTLINE">
      </feComposite>
      <feMerge>
        <feMergeNode in="OUTLINE">
        </feMergeNode>
        <feMergeNode in="SourceGraphic">
        </feMergeNode>
      </feMerge>
      <feColorMatrix type="matrix" values="0   0   0   0   0                0   1   0   0   0                0   0   0   0   0                0   0   0   1   0 ">
      </feColorMatrix>
    </filter>
  </defs>
</svg>